#N canvas 77 22 1341 751 10;
#X obj 267 234 osc~;
#X obj 216 234 osc~;
#X obj 165 234 osc~;
#X obj 68 104 vsl 15 100 0 1000 0 0 empty empty f1 0 -8 1 8 -260818
-1 -1 6500 1;
#X obj 166 258 *~ 0.3;
#X obj 216 258 *~ 0.3;
#X obj 266 258 *~ 0.3;
#X obj 220 448 *~ 0.16;
#X obj 264 282 tgl 15 0 empty empty empty 0 -6 0 8 -262144 -1 -1 1
1;
#X text 25 35 Mixing 3 cosines;
#X text 218 35 Clipping the sum of three;
#X obj 224 345 +~;
#X obj 224 367 clip~ -1 1;
#X obj 224 389 +~;
#X obj 224 416 cos~;
#X obj 347 367 vsl 15 128 0 1 0 0 empty empty empty 0 -9 0 10 -262144
-1 -1 0 1;
#X obj 252 344 * -1;
#X obj 391 190 vsl 15 128 0 1 0 0 empty empty empty 0 -9 0 10 -262144
-1 -1 12700 1;
#X obj 218 516 throw~ oscfund;
#X obj 432 531 output~;
#X obj 81 64 inlet;
#X floatatom 415 324 5 0 0 0 - - -, f 5;
#X text 576 124 make a sine wave oscillate between 0.2 and 0.3;
#X floatatom 728 244 5 0 0 0 - - -, f 5;
#X obj 681 219 snapshot~;
#X obj 744 174 tgl 15 0 empty empty empty 17 7 0 10 -262144 -1 -1 1
1;
#X obj 744 193 metro 100;
#X obj 681 244 / 10;
#X floatatom 723 289 5 0 0 0 - - -, f 5;
#X obj 681 197 osc~ 0.1;
#X msg 691 156 0.1;
#X floatatom 727 315 5 0 0 0 - - -, f 5;
#X obj 681 264 + 0.3;
#X msg 514 25 97.999;
#X msg 513 50 146.832;
#X msg 511 105 659.255;
#X msg 536 76 440;
#X obj 168 91 route f;
#X floatatom 225 114 5 0 0 0 - - -, f 5;
#X obj 189 163 + 0.1;
#X obj 274 162 - 0.1;
#X obj 1078 166 osc~;
#X obj 1027 166 osc~;
#X obj 976 166 osc~;
#X obj 977 190 *~ 0.3;
#X obj 1027 190 *~ 0.3;
#X obj 1077 190 *~ 0.3;
#X obj 1031 380 *~ 0.16;
#X obj 1075 214 tgl 15 0 empty empty empty 0 -6 0 8 -262144 -1 -1 1
1;
#X obj 1035 277 +~;
#X obj 1035 299 clip~ -1 1;
#X obj 1035 321 +~;
#X obj 1035 348 cos~;
#X obj 1158 299 vsl 15 128 0 1 0 0 empty empty empty 0 -9 0 10 -262144
-1 -1 0 1;
#X obj 1063 276 * -1;
#X obj 1202 122 vsl 15 128 0 1 0 0 empty empty empty 0 -9 0 10 -262144
-1 -1 12700 1;
#X floatatom 1226 256 5 0 0 0 - - -, f 5;
#X obj 979 23 route f;
#X floatatom 1036 46 5 0 0 0 - - -, f 5;
#X obj 1000 95 + 0.1;
#X obj 1085 94 - 0.1;
#X connect 0 0 6 0;
#X connect 1 0 5 0;
#X connect 2 0 4 0;
#X connect 3 0 2 0;
#X connect 3 0 39 0;
#X connect 3 0 40 0;
#X connect 4 0 11 0;
#X connect 5 0 11 0;
#X connect 6 0 11 0;
#X connect 7 0 19 0;
#X connect 8 0 11 1;
#X connect 11 0 12 0;
#X connect 12 0 13 0;
#X connect 13 0 14 0;
#X connect 14 0 7 0;
#X connect 15 0 7 1;
#X connect 16 0 12 1;
#X connect 17 0 12 2;
#X connect 17 0 16 0;
#X connect 17 0 21 0;
#X connect 24 0 23 0;
#X connect 24 0 27 0;
#X connect 25 0 26 0;
#X connect 26 0 24 0;
#X connect 27 0 28 0;
#X connect 27 0 32 0;
#X connect 29 0 24 0;
#X connect 30 0 29 0;
#X connect 32 0 31 0;
#X connect 33 0 37 0;
#X connect 33 0 57 0;
#X connect 34 0 37 0;
#X connect 34 0 57 0;
#X connect 35 0 37 0;
#X connect 35 0 57 0;
#X connect 36 0 37 0;
#X connect 36 0 57 0;
#X connect 37 1 38 0;
#X connect 37 1 2 0;
#X connect 37 1 39 0;
#X connect 37 1 40 0;
#X connect 39 0 1 0;
#X connect 40 0 0 0;
#X connect 41 0 46 0;
#X connect 42 0 45 0;
#X connect 43 0 44 0;
#X connect 44 0 49 0;
#X connect 45 0 49 0;
#X connect 46 0 49 0;
#X connect 47 0 19 2;
#X connect 48 0 49 1;
#X connect 49 0 50 0;
#X connect 50 0 51 0;
#X connect 51 0 52 0;
#X connect 52 0 47 0;
#X connect 53 0 47 1;
#X connect 54 0 50 1;
#X connect 55 0 50 2;
#X connect 55 0 54 0;
#X connect 55 0 56 0;
#X connect 57 1 58 0;
#X connect 57 1 43 0;
#X connect 57 1 59 0;
#X connect 57 1 60 0;
#X connect 59 0 42 0;
#X connect 60 0 41 0;
