#N canvas 0 22 717 663 10;
#X obj 122 381 cos~;
#X floatatom 173 184 4 0 200 0 - - -, f 4;
#X obj 173 207 / 10;
#X text 173 103 center;
#X text 173 123 freq. (in;
#X text 173 143 tenths of;
#X text 173 163 fundamental);
#X floatatom 70 192 4 0 0 0 - - -, f 4;
#X text 46 145 fundamental;
#X text 46 165 (= mod freq);
#X text 251 208 index;
#X text 251 228 (percent);
#X floatatom 251 249 4 0 500 0 - - -, f 4;
#X obj 251 318 line~;
#X obj 201 338 *~;
#X obj 251 295 pack 0 50;
#X obj 122 358 +~;
#X text 204 364 modulating;
#X text 209 381 oscillator;
#X obj 122 428 hip~;
#X obj 173 256 *;
#X obj 173 233 t b f;
#X obj 201 315 osc~;
#X obj 122 322 phasor~;
#X text 50 308 carrier;
#X text 24 325 oscillator;
#X obj 122 462 outlet~;
#X obj 52 51 inlet;
#X obj 166 61 inlet;
#X msg 176 83 10;
#X obj 314 40 r padstart;
#X obj 374 143 snapshot~;
#X obj 459 151 metro 100;
#X obj 459 125 tgl 15 0 empty empty empty 17 7 0 10 -262144 -1 -1 1
1;
#X obj 369 80 osc~ 0.2;
#X obj 394 55 hsl 128 15 0 10 0 0 empty empty empty -2 -8 0 10 -262144
-1 -1 12300 1;
#X obj 459 100 spigot;
#X obj 457 81 bng 15 250 50 0 empty empty empty 17 7 0 10 -262144 -1
-1;
#X obj 493 82 tgl 15 0 empty empty empty 17 7 0 10 -262144 -1 -1 0
1;
#X obj 566 75 loadbang;
#X msg 566 98 1;
#X obj 405 17 r wobble;
#X connect 0 0 19 0;
#X connect 1 0 2 0;
#X connect 2 0 21 0;
#X connect 7 0 20 0;
#X connect 7 0 22 0;
#X connect 12 0 15 0;
#X connect 13 0 14 1;
#X connect 14 0 16 1;
#X connect 15 0 13 0;
#X connect 16 0 0 0;
#X connect 19 0 26 0;
#X connect 20 0 23 0;
#X connect 21 0 20 0;
#X connect 21 1 20 1;
#X connect 22 0 14 0;
#X connect 23 0 16 0;
#X connect 27 0 7 0;
#X connect 28 0 1 0;
#X connect 29 0 1 0;
#X connect 30 0 29 0;
#X connect 31 0 12 0;
#X connect 32 0 31 0;
#X connect 33 0 32 0;
#X connect 34 0 31 0;
#X connect 35 0 34 0;
#X connect 35 0 37 0;
#X connect 36 0 33 0;
#X connect 36 0 38 0;
#X connect 37 0 36 0;
#X connect 38 0 36 1;
#X connect 39 0 40 0;
#X connect 40 0 38 0;
#X connect 41 0 35 0;
