#N canvas 113 22 1327 828 10;
#N canvas 425 37 717 795 midifreq 0;
#X obj 106 23 notein;
#X obj 98 52 stripnote;
#X obj 22 147 mtof;
#X floatatom 22 167 5 0 0 0 - - -, f 5;
#X floatatom 95 286 5 0 0 0 - - -, f 5;
#X obj 95 266 spigot 1;
#X obj 140 245 tgl 15 1 empty empty empty 17 7 0 10 -262144 -1 -1 0
1;
#X obj 260 109 bng 15 250 50 0 empty empty empty 17 7 0 10 -262144
-1 -1;
#X obj 260 129 f;
#X obj 260 150 + 1;
#X floatatom 330 166 5 0 0 0 - - -, f 5;
#X floatatom 153 287 5 0 0 0 - - -, f 5;
#X obj 153 267 spigot 1;
#X obj 198 246 tgl 15 1 empty empty empty 17 7 0 10 -262144 -1 -1 0
1;
#X floatatom 212 288 5 0 0 0 - - -, f 5;
#X obj 212 268 spigot 1;
#X obj 257 247 tgl 15 1 empty empty empty 17 7 0 10 -262144 -1 -1 0
1;
#X floatatom 270 289 5 0 0 0 - - -, f 5;
#X obj 270 269 spigot 1;
#X obj 315 248 tgl 15 1 empty empty empty 17 7 0 10 -262144 -1 -1 0
1;
#X floatatom 331 290 5 0 0 0 - - -, f 5;
#X obj 331 270 spigot 1;
#X obj 376 249 tgl 15 1 empty empty empty 17 7 0 10 -262144 -1 -1 0
1;
#X floatatom 389 291 5 0 0 0 - - -, f 5;
#X obj 389 271 spigot 1;
#X obj 434 250 tgl 15 1 empty empty empty 17 7 0 10 -262144 -1 -1 0
1;
#X floatatom 448 292 5 0 0 0 - - -, f 5;
#X obj 448 272 spigot 1;
#X obj 493 251 tgl 15 1 empty empty empty 17 7 0 10 -262144 -1 -1 0
1;
#X floatatom 506 293 5 0 0 0 - - -, f 5;
#X obj 506 273 spigot 1;
#X obj 551 252 tgl 15 1 empty empty empty 17 7 0 10 -262144 -1 -1 0
1;
#X obj 259 183 select 1 2 3 4 5 6 7 8;
#X msg 332 112 0;
#X msg 464 187 1;
#X obj 98 98 change;
#X text 251 44 this just records notes of a chord from a midi keyboard
;
#X text 251 63 the idea is to use this to fill a table / lists with
chords \, to be played back later;
#X obj 213 337 pack f f f f f f f f;
#X obj 20 364 bng 15 250 50 0 empty empty empty 17 7 0 10 -262144 -1
-1;
#X msg 271 361 set \$1 \$2 \$3 \$4 \$5 \$6 \$7 \$8;
#X text 12 390 bang this to store notes in chord;
#X floatatom 27 107 5 0 0 0 - - -, f 5;
#X obj 457 114 bng 15 250 50 0 empty empty empty 17 7 0 10 -262144
-1 -1;
#X text 481 113 reset;
#X connect 0 0 1 0;
#X connect 0 2 1 1;
#X connect 1 0 35 0;
#X connect 2 0 3 0;
#X connect 5 0 4 0;
#X connect 5 0 38 0;
#X connect 6 0 5 1;
#X connect 7 0 8 0;
#X connect 8 0 9 0;
#X connect 9 0 8 1;
#X connect 9 0 10 0;
#X connect 9 0 32 0;
#X connect 12 0 11 0;
#X connect 12 0 38 1;
#X connect 13 0 12 1;
#X connect 15 0 14 0;
#X connect 15 0 38 2;
#X connect 16 0 15 1;
#X connect 18 0 17 0;
#X connect 18 0 38 3;
#X connect 19 0 18 1;
#X connect 21 0 20 0;
#X connect 21 0 38 4;
#X connect 22 0 21 1;
#X connect 24 0 23 0;
#X connect 24 0 38 5;
#X connect 25 0 24 1;
#X connect 27 0 26 0;
#X connect 27 0 38 6;
#X connect 28 0 27 1;
#X connect 30 0 29 0;
#X connect 30 0 38 7;
#X connect 31 0 30 1;
#X connect 32 0 6 0;
#X connect 32 1 13 0;
#X connect 32 2 16 0;
#X connect 32 3 19 0;
#X connect 32 4 22 0;
#X connect 32 5 25 0;
#X connect 32 6 28 0;
#X connect 32 7 31 0;
#X connect 32 8 33 0;
#X connect 32 8 34 0;
#X connect 33 0 8 1;
#X connect 34 0 6 0;
#X connect 34 0 16 0;
#X connect 34 0 19 0;
#X connect 34 0 22 0;
#X connect 34 0 25 0;
#X connect 34 0 28 0;
#X connect 34 0 31 0;
#X connect 34 0 13 0;
#X connect 35 0 2 0;
#X connect 35 0 5 0;
#X connect 35 0 12 0;
#X connect 35 0 15 0;
#X connect 35 0 18 0;
#X connect 35 0 21 0;
#X connect 35 0 24 0;
#X connect 35 0 27 0;
#X connect 35 0 30 0;
#X connect 35 0 42 0;
#X connect 35 0 7 0;
#X connect 38 0 40 0;
#X connect 39 0 38 0;
#X connect 43 0 34 0;
#X connect 43 0 33 0;
#X restore 23 103 pd midifreq;
#X obj 618 700 output~;
#X msg 146 35 329.6;
#X obj 216 599 audioswitch~;
#X obj 285 575 tgl 15 0 empty empty empty 17 7 0 10 -262144 -1 -1 1
1;
#X obj 178 444 tgl 15 0 empty empty empty 17 7 0 10 -262144 -1 -1 1
1;
#X obj 257 476 audioswitch~;
#X obj 326 452 tgl 15 0 empty empty empty 17 7 0 10 -262144 -1 -1 1
1;
#X obj 380 603 audioswitch~;
#X obj 431 580 tgl 15 0 empty empty empty 17 7 0 10 -262144 -1 -1 1
1;
#X obj 108 630 tgl 15 0 empty empty empty 17 7 0 10 -262144 -1 -1 1
1;
#X obj 414 454 audioswitch~;
#X obj 478 430 tgl 15 0 empty empty empty 17 7 0 10 -262144 -1 -1 1
1;
#X obj 109 468 audioswitch~;
#X obj 34 653 audioswitch~;
#X msg 146 58 97.99;
#X msg 146 80 195.9;
#X msg 145 99 293.6;
#X msg 148 119 440;
#X msg 146 140 493.8;
#X msg 148 158 587.3;
#N canvas 275 118 691 589 phasor1 0;
#X obj 301 103 inlet frequency;
#X msg 162 135 220;
#X obj 246 172 * 2;
#X obj 415 455 outlet~ right;
#X obj 199 457 outlet~ left;
#X obj 181 213 phasor~;
#X obj 269 212 phasor~;
#X obj 344 212 phasor~;
#X obj 432 211 phasor~;
#X obj 338 173 + 0.5;
#X obj 429 176 + 0.8;
#X obj 253 364 *~ 0.09;
#X obj 406 365 *~ 0.09;
#X connect 0 0 2 0;
#X connect 0 0 5 0;
#X connect 0 0 9 0;
#X connect 0 0 10 0;
#X connect 1 0 2 0;
#X connect 1 0 5 0;
#X connect 1 0 9 0;
#X connect 2 0 6 0;
#X connect 2 0 10 0;
#X connect 5 0 11 0;
#X connect 6 0 11 0;
#X connect 7 0 12 0;
#X connect 8 0 12 0;
#X connect 9 0 7 0;
#X connect 10 0 8 0;
#X connect 11 0 4 0;
#X connect 12 0 3 0;
#X restore 103 443 pd phasor1;
#N canvas 275 118 691 589 phasor2 0;
#X obj 301 103 inlet frequency;
#X msg 162 135 220;
#X obj 246 172 * 2;
#X obj 415 455 outlet~ right;
#X obj 199 457 outlet~ left;
#X obj 181 213 phasor~;
#X obj 269 212 phasor~;
#X obj 344 212 phasor~;
#X obj 432 211 phasor~;
#X obj 338 173 + 0.5;
#X obj 429 176 + 0.8;
#X obj 253 364 *~ 0.09;
#X obj 406 365 *~ 0.09;
#X connect 0 0 2 0;
#X connect 0 0 5 0;
#X connect 0 0 9 0;
#X connect 0 0 10 0;
#X connect 1 0 2 0;
#X connect 1 0 5 0;
#X connect 1 0 9 0;
#X connect 2 0 6 0;
#X connect 2 0 10 0;
#X connect 5 0 11 0;
#X connect 6 0 11 0;
#X connect 7 0 12 0;
#X connect 8 0 12 0;
#X connect 9 0 7 0;
#X connect 10 0 8 0;
#X connect 11 0 4 0;
#X connect 12 0 3 0;
#X restore 33 629 pd phasor2;
#N canvas 623 95 728 500 sine1 0;
#X obj 165 128 osc~;
#X obj 285 18 inlet frequency;
#X obj 253 127 osc~;
#X obj 328 127 osc~;
#X obj 416 126 osc~;
#X msg 146 50 220;
#X obj 230 87 * 2;
#X obj 322 88 + 2;
#X obj 413 91 + 2;
#X obj 399 370 outlet~ right;
#X obj 183 372 outlet~ left;
#X obj 237 279 *~ 0.1;
#X obj 390 280 *~ 0.1;
#X connect 0 0 11 0;
#X connect 1 0 0 0;
#X connect 1 0 6 0;
#X connect 1 0 7 0;
#X connect 1 0 8 0;
#X connect 2 0 11 0;
#X connect 3 0 12 0;
#X connect 4 0 12 0;
#X connect 5 0 0 0;
#X connect 5 0 6 0;
#X connect 5 0 7 0;
#X connect 6 0 2 0;
#X connect 6 0 8 0;
#X connect 7 0 3 0;
#X connect 8 0 4 0;
#X connect 11 0 10 0;
#X connect 12 0 9 0;
#X restore 210 575 pd sine1;
#N canvas 623 95 728 500 sine2 0;
#X obj 165 128 osc~;
#X obj 285 18 inlet frequency;
#X obj 253 127 osc~;
#X obj 328 127 osc~;
#X obj 416 126 osc~;
#X msg 146 50 220;
#X obj 237 279 *~ 0.25;
#X obj 230 87 * 2;
#X obj 322 88 + 2;
#X obj 413 91 + 2;
#X obj 390 280 *~ 0.25;
#X obj 399 370 outlet~ right;
#X obj 183 372 outlet~ left;
#X connect 0 0 6 0;
#X connect 1 0 0 0;
#X connect 1 0 7 0;
#X connect 1 0 8 0;
#X connect 1 0 9 0;
#X connect 2 0 6 0;
#X connect 3 0 10 0;
#X connect 4 0 10 0;
#X connect 5 0 0 0;
#X connect 5 0 7 0;
#X connect 5 0 8 0;
#X connect 6 0 12 0;
#X connect 7 0 2 0;
#X connect 7 0 9 0;
#X connect 8 0 3 0;
#X connect 9 0 4 0;
#X connect 10 0 11 0;
#X restore 374 579 pd sine2;
#N canvas 699 23 657 670 osc1 0;
#X obj 122 381 cos~;
#X floatatom 70 192 4 0 0 0 - - -, f 4;
#X text 101 192 fundamental;
#X floatatom 315 276 4 0 500 0 - - -, f 4;
#X obj 251 318 line~;
#X obj 201 338 *~;
#X obj 251 295 pack 0 50;
#X obj 122 358 +~;
#X text 204 364 modulating;
#X text 209 381 oscillator;
#X obj 201 315 osc~;
#X obj 122 322 phasor~;
#X text 50 308 carrier;
#X text 24 325 oscillator;
#X obj 122 432 outlet~;
#X obj 68 61 inlet;
#X obj 251 224 snapshot~;
#X obj 251 194 osc~ 0.078;
#X obj 336 232 metro 100;
#X msg 249 132 0.078;
#X obj 122 407 *~ 0.05;
#X connect 0 0 20 0;
#X connect 1 0 10 0;
#X connect 1 0 11 0;
#X connect 4 0 5 1;
#X connect 5 0 7 1;
#X connect 6 0 4 0;
#X connect 7 0 0 0;
#X connect 10 0 5 0;
#X connect 11 0 7 0;
#X connect 15 0 1 0;
#X connect 15 0 19 0;
#X connect 16 0 3 0;
#X connect 16 0 6 0;
#X connect 17 0 16 0;
#X connect 18 0 16 0;
#X connect 19 0 17 0;
#X connect 19 0 18 0;
#X connect 20 0 14 0;
#X restore 259 452 pd osc1;
#N canvas 699 23 657 670 osc2 0;
#X obj 122 381 cos~;
#X floatatom 70 192 4 0 0 0 - - -, f 4;
#X text 101 192 fundamental;
#X floatatom 315 276 4 0 500 0 - - -, f 4;
#X obj 251 318 line~;
#X obj 201 338 *~;
#X obj 251 295 pack 0 50;
#X obj 122 358 +~;
#X text 204 364 modulating;
#X text 209 381 oscillator;
#X obj 201 315 osc~;
#X obj 122 322 phasor~;
#X text 50 308 carrier;
#X text 24 325 oscillator;
#X obj 122 432 outlet~;
#X obj 68 61 inlet;
#X obj 251 224 snapshot~;
#X obj 251 194 osc~ 0.078;
#X obj 336 232 metro 100;
#X msg 249 132 0.078;
#X obj 122 407 *~ 0.1;
#X connect 0 0 20 0;
#X connect 1 0 10 0;
#X connect 1 0 11 0;
#X connect 4 0 5 1;
#X connect 5 0 7 1;
#X connect 6 0 4 0;
#X connect 7 0 0 0;
#X connect 10 0 5 0;
#X connect 11 0 7 0;
#X connect 15 0 1 0;
#X connect 15 0 19 0;
#X connect 16 0 3 0;
#X connect 16 0 6 0;
#X connect 17 0 16 0;
#X connect 18 0 16 0;
#X connect 19 0 17 0;
#X connect 19 0 18 0;
#X connect 20 0 14 0;
#X restore 416 430 pd osc2;
#X obj 18 549 audioswitch~;
#X obj 87 525 tgl 15 0 empty empty empty 17 7 0 10 -262144 -1 -1 1
1;
#N canvas 699 23 657 670 osc3 0;
#X obj 122 381 cos~;
#X floatatom 70 192 4 0 0 0 - - -, f 4;
#X text 101 192 fundamental;
#X floatatom 315 276 4 0 500 0 - - -, f 4;
#X obj 251 318 line~;
#X obj 201 338 *~;
#X obj 251 295 pack 0 50;
#X obj 122 358 +~;
#X text 204 364 modulating;
#X text 209 381 oscillator;
#X obj 201 315 osc~;
#X obj 122 322 phasor~;
#X text 50 308 carrier;
#X text 24 325 oscillator;
#X obj 122 432 outlet~;
#X obj 68 61 inlet;
#X obj 251 224 snapshot~;
#X obj 251 194 osc~ 0.078;
#X obj 336 232 metro 100;
#X msg 249 132 0.078;
#X obj 122 407 *~ 0.4;
#X connect 0 0 20 0;
#X connect 1 0 10 0;
#X connect 1 0 11 0;
#X connect 4 0 5 1;
#X connect 5 0 7 1;
#X connect 6 0 4 0;
#X connect 7 0 0 0;
#X connect 10 0 5 0;
#X connect 11 0 7 0;
#X connect 15 0 1 0;
#X connect 15 0 19 0;
#X connect 16 0 3 0;
#X connect 16 0 6 0;
#X connect 17 0 16 0;
#X connect 18 0 16 0;
#X connect 19 0 17 0;
#X connect 19 0 18 0;
#X connect 20 0 14 0;
#X restore 18 525 pd osc3;
#X obj 18 501 / 2;
#N canvas 860 225 450 300 noise 0;
#X obj 201 42 inlet freq;
#X obj 154 105 noise~;
#X obj 109 260 outlet~ left;
#X obj 221 263 outlet~ right;
#X obj 177 164 bp~ \$1 10;
#X floatatom 243 131 5 0 0 0 - - -, f 5;
#X obj 201 91 moses 10000;
#X obj 165 221 *~ 0.25;
#X obj 201 69 * 10;
#X connect 0 0 8 0;
#X connect 1 0 4 0;
#X connect 4 0 7 0;
#X connect 5 0 4 2;
#X connect 6 0 4 1;
#X connect 7 0 2 0;
#X connect 7 0 3 0;
#X connect 8 0 6 0;
#X restore 222 696 pd noise;
#X obj 222 718 audioswitch~;
#X obj 291 695 tgl 15 0 empty empty empty 17 7 0 10 -262144 -1 -1 1
1;
#X obj 18 467 r osc3;
#X obj 99 418 r phasor1;
#X obj 29 604 r phasor2;
#X obj 256 425 r osc1;
#X obj 205 547 r sine1;
#X obj 371 551 r sine2;
#X obj 413 401 r osc2;
#X obj 225 667 r noise;
#N canvas 131 36 1293 464 playback 0;
#X obj -1831 -153 s osc3;
#X obj -1778 -153 s phasor1;
#X obj -1711 -154 s phasor2;
#X obj -1645 -155 s osc1;
#X obj -1594 -154 s sine1;
#X obj -1542 -154 s osc2;
#X obj -1496 -154 s sine2;
#X obj -1445 -156 s noise;
#X text -1585 -440 G;
#X text -894 -435 Eb;
#X msg -1732 -439 39 43 55 62 67 71 74 79;
#X msg -1040 -436 39 51 58 67 74 79 87 91;
#X msg -1722 -408 48 60 67 72 76 79 84 91;
#X text -1574 -407 C;
#X msg -1015 -404 44 51 56 60 67 68 75 80;
#X text -868 -405 Ab;
#X msg -1726 -378 41 53 60 67 69 72 77 84;
#X text -1578 -379 F;
#X msg -993 -371 38 50 55 57 62 67 69 74;
#X text -848 -372 D;
#X msg -1738 -352 46 53 58 62 65 67 74 79;
#X text -1590 -354 Bb;
#X text -1026 -549 send line to fade out/in;
#X obj -1140 -158 s osc3b;
#X obj -1087 -158 s phasor1b;
#X obj -1020 -159 s phasor2b;
#X obj -954 -160 s osc1b;
#X obj -903 -159 s sine1b;
#X obj -846 -159 s osc2b;
#X obj -794 -159 s sine2b;
#X obj -732 -158 s noiseb;
#X obj -1697 -273 unpack f f f f f f f f;
#X obj -1812 -209 mtof;
#X obj -1762 -209 mtof;
#X obj -1697 -209 mtof;
#X obj -1647 -209 mtof;
#X obj -1584 -209 mtof;
#X obj -1534 -209 mtof;
#X obj -1485 -209 mtof;
#X obj -1437 -209 mtof;
#X obj -994 -296 unpack f f f f f f f f;
#X obj -1109 -232 mtof;
#X obj -1059 -232 mtof;
#X obj -994 -232 mtof;
#X obj -944 -232 mtof;
#X obj -881 -232 mtof;
#X obj -831 -232 mtof;
#X obj -782 -232 mtof;
#X obj -734 -232 mtof;
#X obj -1358 -551 tgl 15 0 empty empty empty 17 7 0 10 -262144 -1 -1
0 1;
#X obj -1358 -507 f;
#X obj -1358 -485 + 1;
#X msg -1328 -507 0;
#X obj -1358 -529 metro 1000;
#X floatatom -1330 -457 5 0 0 0 - - -, f 5;
#X obj -1172 -482 select 3;
#X obj -1335 -276 s line1;
#X obj -1249 -276 s line2;
#X msg -1250 -381 1 1000;
#X msg -1334 -381 0 1000;
#X obj -1509 -441 select 6;
#X msg -1324 -357 1 1000;
#X msg -1241 -355 0 1000;
#X obj -1159 -455 select 9;
#X obj -1533 -406 select 12;
#X obj -1139 -427 select 18;
#X obj -1545 -370 select 21;
#X obj -1550 -490 select 1;
#X obj -1524 -549 r start;
#X msg -1279 -548 0;
#X obj -1235 -544 r stop;
#X msg -1466 -529 1;
#X connect 10 0 31 0;
#X connect 11 0 40 0;
#X connect 12 0 31 0;
#X connect 14 0 40 0;
#X connect 16 0 31 0;
#X connect 18 0 40 0;
#X connect 20 0 31 0;
#X connect 31 0 32 0;
#X connect 31 1 33 0;
#X connect 31 2 34 0;
#X connect 31 3 35 0;
#X connect 31 4 36 0;
#X connect 31 5 37 0;
#X connect 31 6 38 0;
#X connect 31 7 39 0;
#X connect 32 0 0 0;
#X connect 33 0 1 0;
#X connect 34 0 2 0;
#X connect 35 0 3 0;
#X connect 36 0 4 0;
#X connect 37 0 5 0;
#X connect 38 0 6 0;
#X connect 39 0 7 0;
#X connect 40 0 41 0;
#X connect 40 1 42 0;
#X connect 40 2 43 0;
#X connect 40 3 44 0;
#X connect 40 4 45 0;
#X connect 40 5 46 0;
#X connect 40 6 47 0;
#X connect 40 7 48 0;
#X connect 41 0 23 0;
#X connect 42 0 24 0;
#X connect 43 0 25 0;
#X connect 44 0 26 0;
#X connect 45 0 27 0;
#X connect 46 0 28 0;
#X connect 47 0 29 0;
#X connect 48 0 30 0;
#X connect 49 0 53 0;
#X connect 50 0 51 0;
#X connect 51 0 50 1;
#X connect 51 0 54 0;
#X connect 51 0 55 0;
#X connect 51 0 60 0;
#X connect 51 0 63 0;
#X connect 51 0 64 0;
#X connect 51 0 65 0;
#X connect 51 0 66 0;
#X connect 51 0 67 0;
#X connect 52 0 50 1;
#X connect 53 0 50 0;
#X connect 55 0 11 0;
#X connect 55 0 58 0;
#X connect 55 0 59 0;
#X connect 58 0 57 0;
#X connect 59 0 56 0;
#X connect 60 0 61 0;
#X connect 60 0 12 0;
#X connect 60 0 62 0;
#X connect 61 0 56 0;
#X connect 62 0 57 0;
#X connect 63 0 14 0;
#X connect 63 0 58 0;
#X connect 63 0 59 0;
#X connect 64 0 16 0;
#X connect 64 0 61 0;
#X connect 64 0 62 0;
#X connect 65 0 18 0;
#X connect 65 0 58 0;
#X connect 65 0 59 0;
#X connect 66 0 61 0;
#X connect 66 0 62 0;
#X connect 66 0 20 0;
#X connect 67 0 10 0;
#X connect 67 0 61 0;
#X connect 68 0 71 0;
#X connect 69 0 49 0;
#X connect 70 0 69 0;
#X connect 70 0 62 0;
#X connect 70 0 59 0;
#X connect 70 0 52 0;
#X connect 71 0 49 0;
#X restore 24 130 pd playback;
#X obj 291 743 throw~ R;
#X obj 222 743 throw~ L;
#X obj 482 476 throw~ R;
#X obj 413 476 throw~ L;
#X obj 448 625 throw~ R;
#X obj 379 625 throw~ L;
#X obj 326 499 throw~ R;
#X obj 257 499 throw~ L;
#X obj 88 573 throw~ R;
#X obj 19 573 throw~ L;
#X obj 178 492 throw~ R;
#X obj 109 492 throw~ L;
#X obj 103 676 throw~ R;
#X obj 34 676 throw~ L;
#X obj 285 629 throw~ R;
#X obj 216 629 throw~ L;
#X obj 518 559 catch~ L;
#X obj 573 559 catch~ R;
#X obj 951 374 audioswitch~;
#X obj 1020 350 tgl 15 0 empty empty empty 17 7 0 10 -262144 -1 -1
1 1;
#X obj 913 219 tgl 15 0 empty empty empty 17 7 0 10 -262144 -1 -1 1
1;
#X obj 992 251 audioswitch~;
#X obj 1061 227 tgl 15 0 empty empty empty 17 7 0 10 -262144 -1 -1
1 1;
#X obj 1115 378 audioswitch~;
#X obj 1166 355 tgl 15 0 empty empty empty 17 7 0 10 -262144 -1 -1
1 1;
#X obj 843 405 tgl 15 0 empty empty empty 17 7 0 10 -262144 -1 -1 1
1;
#X obj 1149 229 audioswitch~;
#X obj 1213 205 tgl 15 0 empty empty empty 17 7 0 10 -262144 -1 -1
1 1;
#X obj 844 243 audioswitch~;
#X obj 769 428 audioswitch~;
#N canvas 275 118 691 589 phasor1 0;
#X obj 301 103 inlet frequency;
#X msg 162 135 220;
#X obj 246 172 * 2;
#X obj 415 455 outlet~ right;
#X obj 199 457 outlet~ left;
#X obj 181 213 phasor~;
#X obj 269 212 phasor~;
#X obj 344 212 phasor~;
#X obj 432 211 phasor~;
#X obj 338 173 + 0.5;
#X obj 429 176 + 0.8;
#X obj 253 364 *~ 0.09;
#X obj 406 365 *~ 0.09;
#X connect 0 0 2 0;
#X connect 0 0 5 0;
#X connect 0 0 9 0;
#X connect 0 0 10 0;
#X connect 1 0 2 0;
#X connect 1 0 5 0;
#X connect 1 0 9 0;
#X connect 2 0 6 0;
#X connect 2 0 10 0;
#X connect 5 0 11 0;
#X connect 6 0 11 0;
#X connect 7 0 12 0;
#X connect 8 0 12 0;
#X connect 9 0 7 0;
#X connect 10 0 8 0;
#X connect 11 0 4 0;
#X connect 12 0 3 0;
#X restore 838 218 pd phasor1;
#N canvas 275 118 691 589 phasor2 0;
#X obj 301 103 inlet frequency;
#X msg 162 135 220;
#X obj 246 172 * 2;
#X obj 415 455 outlet~ right;
#X obj 199 457 outlet~ left;
#X obj 181 213 phasor~;
#X obj 269 212 phasor~;
#X obj 344 212 phasor~;
#X obj 432 211 phasor~;
#X obj 338 173 + 0.5;
#X obj 429 176 + 0.8;
#X obj 253 364 *~ 0.09;
#X obj 406 365 *~ 0.09;
#X connect 0 0 2 0;
#X connect 0 0 5 0;
#X connect 0 0 9 0;
#X connect 0 0 10 0;
#X connect 1 0 2 0;
#X connect 1 0 5 0;
#X connect 1 0 9 0;
#X connect 2 0 6 0;
#X connect 2 0 10 0;
#X connect 5 0 11 0;
#X connect 6 0 11 0;
#X connect 7 0 12 0;
#X connect 8 0 12 0;
#X connect 9 0 7 0;
#X connect 10 0 8 0;
#X connect 11 0 4 0;
#X connect 12 0 3 0;
#X restore 768 404 pd phasor2;
#N canvas 623 95 728 500 sine1 0;
#X obj 165 128 osc~;
#X obj 285 18 inlet frequency;
#X obj 253 127 osc~;
#X obj 328 127 osc~;
#X obj 416 126 osc~;
#X msg 146 50 220;
#X obj 230 87 * 2;
#X obj 322 88 + 2;
#X obj 413 91 + 2;
#X obj 399 370 outlet~ right;
#X obj 183 372 outlet~ left;
#X obj 237 279 *~ 0.1;
#X obj 390 280 *~ 0.1;
#X connect 0 0 11 0;
#X connect 1 0 0 0;
#X connect 1 0 6 0;
#X connect 1 0 7 0;
#X connect 1 0 8 0;
#X connect 2 0 11 0;
#X connect 3 0 12 0;
#X connect 4 0 12 0;
#X connect 5 0 0 0;
#X connect 5 0 6 0;
#X connect 5 0 7 0;
#X connect 6 0 2 0;
#X connect 6 0 8 0;
#X connect 7 0 3 0;
#X connect 8 0 4 0;
#X connect 11 0 10 0;
#X connect 12 0 9 0;
#X restore 945 350 pd sine1;
#N canvas 623 95 728 500 sine2 0;
#X obj 165 128 osc~;
#X obj 285 18 inlet frequency;
#X obj 253 127 osc~;
#X obj 328 127 osc~;
#X obj 416 126 osc~;
#X msg 146 50 220;
#X obj 237 279 *~ 0.25;
#X obj 230 87 * 2;
#X obj 322 88 + 2;
#X obj 413 91 + 2;
#X obj 390 280 *~ 0.25;
#X obj 399 370 outlet~ right;
#X obj 183 372 outlet~ left;
#X connect 0 0 6 0;
#X connect 1 0 0 0;
#X connect 1 0 7 0;
#X connect 1 0 8 0;
#X connect 1 0 9 0;
#X connect 2 0 6 0;
#X connect 3 0 10 0;
#X connect 4 0 10 0;
#X connect 5 0 0 0;
#X connect 5 0 7 0;
#X connect 5 0 8 0;
#X connect 6 0 12 0;
#X connect 7 0 2 0;
#X connect 7 0 9 0;
#X connect 8 0 3 0;
#X connect 9 0 4 0;
#X connect 10 0 11 0;
#X restore 1109 354 pd sine2;
#N canvas 699 23 657 670 osc1 0;
#X obj 122 381 cos~;
#X floatatom 70 192 4 0 0 0 - - -, f 4;
#X text 101 192 fundamental;
#X floatatom 315 276 4 0 500 0 - - -, f 4;
#X obj 251 318 line~;
#X obj 201 338 *~;
#X obj 251 295 pack 0 50;
#X obj 122 358 +~;
#X text 204 364 modulating;
#X text 209 381 oscillator;
#X obj 201 315 osc~;
#X obj 122 322 phasor~;
#X text 50 308 carrier;
#X text 24 325 oscillator;
#X obj 122 432 outlet~;
#X obj 68 61 inlet;
#X obj 251 224 snapshot~;
#X obj 251 194 osc~ 0.078;
#X obj 336 232 metro 100;
#X msg 249 132 0.078;
#X obj 122 407 *~ 0.05;
#X connect 0 0 20 0;
#X connect 1 0 10 0;
#X connect 1 0 11 0;
#X connect 4 0 5 1;
#X connect 5 0 7 1;
#X connect 6 0 4 0;
#X connect 7 0 0 0;
#X connect 10 0 5 0;
#X connect 11 0 7 0;
#X connect 15 0 1 0;
#X connect 15 0 19 0;
#X connect 16 0 3 0;
#X connect 16 0 6 0;
#X connect 17 0 16 0;
#X connect 18 0 16 0;
#X connect 19 0 17 0;
#X connect 19 0 18 0;
#X connect 20 0 14 0;
#X restore 994 227 pd osc1;
#N canvas 699 23 657 670 osc2 0;
#X obj 122 381 cos~;
#X floatatom 70 192 4 0 0 0 - - -, f 4;
#X text 101 192 fundamental;
#X floatatom 315 276 4 0 500 0 - - -, f 4;
#X obj 251 318 line~;
#X obj 201 338 *~;
#X obj 251 295 pack 0 50;
#X obj 122 358 +~;
#X text 204 364 modulating;
#X text 209 381 oscillator;
#X obj 201 315 osc~;
#X obj 122 322 phasor~;
#X text 50 308 carrier;
#X text 24 325 oscillator;
#X obj 122 432 outlet~;
#X obj 68 61 inlet;
#X obj 251 224 snapshot~;
#X obj 251 194 osc~ 0.078;
#X obj 336 232 metro 100;
#X msg 249 132 0.078;
#X obj 122 407 *~ 0.1;
#X connect 0 0 20 0;
#X connect 1 0 10 0;
#X connect 1 0 11 0;
#X connect 4 0 5 1;
#X connect 5 0 7 1;
#X connect 6 0 4 0;
#X connect 7 0 0 0;
#X connect 10 0 5 0;
#X connect 11 0 7 0;
#X connect 15 0 1 0;
#X connect 15 0 19 0;
#X connect 16 0 3 0;
#X connect 16 0 6 0;
#X connect 17 0 16 0;
#X connect 18 0 16 0;
#X connect 19 0 17 0;
#X connect 19 0 18 0;
#X connect 20 0 14 0;
#X restore 1151 205 pd osc2;
#X obj 753 324 audioswitch~;
#X obj 822 300 tgl 15 0 empty empty empty 17 7 0 10 -262144 -1 -1 1
1;
#N canvas 699 23 657 670 osc3 0;
#X obj 122 381 cos~;
#X floatatom 70 192 4 0 0 0 - - -, f 4;
#X text 101 192 fundamental;
#X floatatom 315 276 4 0 500 0 - - -, f 4;
#X obj 251 318 line~;
#X obj 201 338 *~;
#X obj 251 295 pack 0 50;
#X obj 122 358 +~;
#X text 204 364 modulating;
#X text 209 381 oscillator;
#X obj 201 315 osc~;
#X obj 122 322 phasor~;
#X text 50 308 carrier;
#X text 24 325 oscillator;
#X obj 122 432 outlet~;
#X obj 68 61 inlet;
#X obj 251 224 snapshot~;
#X obj 251 194 osc~ 0.078;
#X obj 336 232 metro 100;
#X msg 249 132 0.078;
#X obj 122 407 *~ 0.4;
#X connect 0 0 20 0;
#X connect 1 0 10 0;
#X connect 1 0 11 0;
#X connect 4 0 5 1;
#X connect 5 0 7 1;
#X connect 6 0 4 0;
#X connect 7 0 0 0;
#X connect 10 0 5 0;
#X connect 11 0 7 0;
#X connect 15 0 1 0;
#X connect 15 0 19 0;
#X connect 16 0 3 0;
#X connect 16 0 6 0;
#X connect 17 0 16 0;
#X connect 18 0 16 0;
#X connect 19 0 17 0;
#X connect 19 0 18 0;
#X connect 20 0 14 0;
#X restore 753 300 pd osc3;
#X obj 753 276 / 2;
#N canvas 860 225 450 300 noise 0;
#X obj 201 42 inlet freq;
#X obj 154 105 noise~;
#X obj 109 260 outlet~ left;
#X obj 221 263 outlet~ right;
#X obj 177 164 bp~ \$1 10;
#X floatatom 243 131 5 0 0 0 - - -, f 5;
#X obj 201 91 moses 10000;
#X obj 165 221 *~ 0.25;
#X obj 201 69 * 10;
#X connect 0 0 8 0;
#X connect 1 0 4 0;
#X connect 4 0 7 0;
#X connect 5 0 4 2;
#X connect 6 0 4 1;
#X connect 7 0 2 0;
#X connect 7 0 3 0;
#X connect 8 0 6 0;
#X restore 957 471 pd noise;
#X obj 957 493 audioswitch~;
#X obj 1026 470 tgl 15 0 empty empty empty 17 7 0 10 -262144 -1 -1
1 1;
#X obj 753 242 r osc3b;
#X obj 834 193 r phasor1b;
#X obj 991 200 r osc1b;
#X obj 1148 176 r osc2b;
#X obj 1106 326 r sine2b;
#X obj 940 322 r sine1b;
#X obj 764 379 r phasor2b;
#X obj 960 442 r noiseb;
#X obj 519 644 *~;
#X obj 573 644 *~;
#X obj 534 618 line 1000;
#X obj 595 618 line 1000;
#X obj 678 649 *~;
#X obj 732 649 *~;
#X obj 693 623 line 1000;
#X obj 754 623 line 1000;
#X obj 677 564 catch~ Lb;
#X obj 737 564 catch~ Rb;
#X obj 754 348 throw~ Lb;
#X obj 823 348 throw~ Rb;
#X obj 844 267 throw~ Lb;
#X obj 913 267 throw~ Rb;
#X obj 992 274 throw~ Lb;
#X obj 1061 274 throw~ Rb;
#X obj 1148 251 throw~ Lb;
#X obj 1217 251 throw~ Rb;
#X obj 769 451 throw~ Lb;
#X obj 838 451 throw~ Rb;
#X obj 951 404 throw~ Lb;
#X obj 1020 404 throw~ Rb;
#X obj 1114 400 throw~ Lb;
#X obj 1183 400 throw~ Rb;
#X obj 957 518 throw~ Lb;
#X obj 1026 518 throw~ Rb;
#X obj 595 595 r line1;
#X obj 534 595 r line1;
#X obj 754 591 r line2;
#X obj 693 591 r line2;
#X obj 449 32 bng 15 250 50 0 empty empty empty 17 7 0 10 -262144 -1
-1;
#X obj 396 60 s start;
#X obj 396 31 bng 15 250 50 0 empty empty empty 17 7 0 10 -262144 -1
-1;
#X obj 449 61 s stop;
#X connect 2 0 21 0;
#X connect 3 0 58 0;
#X connect 3 1 57 0;
#X connect 4 0 3 2;
#X connect 5 0 13 2;
#X connect 6 0 50 0;
#X connect 6 1 49 0;
#X connect 7 0 6 2;
#X connect 8 0 48 0;
#X connect 8 1 47 0;
#X connect 9 0 8 2;
#X connect 10 0 14 2;
#X connect 11 0 46 0;
#X connect 11 1 45 0;
#X connect 12 0 11 2;
#X connect 13 0 54 0;
#X connect 13 1 53 0;
#X connect 14 0 56 0;
#X connect 14 1 55 0;
#X connect 15 0 21 0;
#X connect 15 0 30 0;
#X connect 16 0 22 0;
#X connect 17 0 25 0;
#X connect 18 0 24 0;
#X connect 19 0 26 0;
#X connect 20 0 23 0;
#X connect 21 0 13 0;
#X connect 21 1 13 1;
#X connect 22 0 14 0;
#X connect 22 1 14 1;
#X connect 23 0 3 0;
#X connect 23 1 3 1;
#X connect 24 0 8 0;
#X connect 24 1 8 1;
#X connect 25 0 6 0;
#X connect 25 0 6 1;
#X connect 26 0 11 0;
#X connect 26 0 11 1;
#X connect 27 0 52 0;
#X connect 27 1 51 0;
#X connect 28 0 27 2;
#X connect 29 0 27 0;
#X connect 29 0 27 1;
#X connect 30 0 29 0;
#X connect 31 0 32 0;
#X connect 31 1 32 1;
#X connect 32 0 44 0;
#X connect 32 1 43 0;
#X connect 33 0 32 2;
#X connect 34 0 30 0;
#X connect 35 0 21 0;
#X connect 36 0 22 0;
#X connect 37 0 25 0;
#X connect 38 0 23 0;
#X connect 39 0 24 0;
#X connect 40 0 26 0;
#X connect 41 0 31 0;
#X connect 59 0 94 0;
#X connect 60 0 95 0;
#X connect 61 0 114 0;
#X connect 61 1 115 0;
#X connect 62 0 61 2;
#X connect 63 0 71 2;
#X connect 64 0 108 0;
#X connect 64 1 109 0;
#X connect 65 0 64 2;
#X connect 66 0 116 0;
#X connect 66 1 117 0;
#X connect 67 0 66 2;
#X connect 68 0 72 2;
#X connect 69 0 110 0;
#X connect 69 1 111 0;
#X connect 70 0 69 2;
#X connect 71 0 106 0;
#X connect 71 1 107 0;
#X connect 72 0 112 0;
#X connect 72 1 113 0;
#X connect 73 0 71 0;
#X connect 73 1 71 1;
#X connect 74 0 72 0;
#X connect 74 1 72 1;
#X connect 75 0 61 0;
#X connect 75 1 61 1;
#X connect 76 0 66 0;
#X connect 76 1 66 1;
#X connect 77 0 64 0;
#X connect 77 0 64 1;
#X connect 78 0 69 0;
#X connect 78 0 69 1;
#X connect 79 0 104 0;
#X connect 79 1 105 0;
#X connect 80 0 79 2;
#X connect 81 0 79 0;
#X connect 81 0 79 1;
#X connect 82 0 81 0;
#X connect 83 0 84 0;
#X connect 83 1 84 1;
#X connect 84 0 118 0;
#X connect 84 1 119 0;
#X connect 85 0 84 2;
#X connect 86 0 82 0;
#X connect 87 0 73 0;
#X connect 88 0 77 0;
#X connect 89 0 78 0;
#X connect 90 0 76 0;
#X connect 91 0 75 0;
#X connect 92 0 74 0;
#X connect 93 0 83 0;
#X connect 94 0 1 0;
#X connect 95 0 1 2;
#X connect 96 0 94 1;
#X connect 97 0 95 1;
#X connect 98 0 1 0;
#X connect 99 0 1 2;
#X connect 100 0 98 1;
#X connect 101 0 99 1;
#X connect 102 0 98 0;
#X connect 103 0 99 0;
#X connect 120 0 97 0;
#X connect 121 0 96 0;
#X connect 122 0 101 0;
#X connect 123 0 100 0;
#X connect 124 0 127 0;
#X connect 126 0 125 0;
