#N canvas 113 22 1023 797 10;
#N canvas 676 22 717 795 midifreq 1;
#X obj 106 42 notein;
#X floatatom 44 59 5 0 0 0 - - -, f 5;
#X obj 98 71 stripnote;
#X obj 97 123 mtof;
#X floatatom 122 146 5 0 0 0 - - -, f 5;
#X floatatom 95 286 5 0 0 0 - - -, f 5;
#X obj 95 266 spigot 1;
#X obj 140 245 tgl 15 1 empty empty empty 17 7 0 10 -262144 -1 -1 0
1;
#X obj 260 109 bng 15 250 50 0 empty empty empty 17 7 0 10 -262144
-1 -1;
#X obj 260 129 f;
#X obj 260 150 + 1;
#X floatatom 330 166 5 0 0 0 - - -, f 5;
#X floatatom 153 287 5 0 0 0 - - -, f 5;
#X obj 153 267 spigot 1;
#X obj 198 246 tgl 15 1 empty empty empty 17 7 0 10 -262144 -1 -1 1
1;
#X floatatom 212 288 5 0 0 0 - - -, f 5;
#X obj 212 268 spigot 1;
#X obj 257 247 tgl 15 1 empty empty empty 17 7 0 10 -262144 -1 -1 1
1;
#X floatatom 270 289 5 0 0 0 - - -, f 5;
#X obj 270 269 spigot 1;
#X obj 315 248 tgl 15 1 empty empty empty 17 7 0 10 -262144 -1 -1 1
1;
#X floatatom 331 290 5 0 0 0 - - -, f 5;
#X obj 331 270 spigot 1;
#X obj 376 249 tgl 15 1 empty empty empty 17 7 0 10 -262144 -1 -1 1
1;
#X floatatom 389 291 5 0 0 0 - - -, f 5;
#X obj 389 271 spigot 1;
#X obj 434 250 tgl 15 1 empty empty empty 17 7 0 10 -262144 -1 -1 1
1;
#X floatatom 448 292 5 0 0 0 - - -, f 5;
#X obj 448 272 spigot 1;
#X obj 493 251 tgl 15 1 empty empty empty 17 7 0 10 -262144 -1 -1 1
1;
#X floatatom 506 293 5 0 0 0 - - -, f 5;
#X obj 506 273 spigot 1;
#X obj 551 252 tgl 15 1 empty empty empty 17 7 0 10 -262144 -1 -1 1
1;
#X obj 259 183 select 1 2 3 4 5 6 7 8;
#X msg 332 112 0;
#X msg 464 187 1;
#X obj 98 97 change;
#X text 251 44 this just records notes of a chord from a midi keyboard
;
#X text 251 63 the idea is to use this to fill a table / lists with
chords \, to be played back later;
#X obj 213 337 pack f f f f f f f f;
#X obj 166 309 bng 15 250 50 0 empty empty empty 17 7 0 10 -262144
-1 -1;
#X msg 288 368 set \$1 \$2 \$3 \$4 \$5 \$6 \$7 \$8;
#X msg 385 405;
#X text 12 390 bang this to store notes in chord;
#X connect 0 0 2 0;
#X connect 0 1 1 0;
#X connect 0 2 2 1;
#X connect 2 0 36 0;
#X connect 3 0 4 0;
#X connect 3 0 6 0;
#X connect 3 0 13 0;
#X connect 3 0 16 0;
#X connect 3 0 19 0;
#X connect 3 0 22 0;
#X connect 3 0 25 0;
#X connect 3 0 28 0;
#X connect 3 0 31 0;
#X connect 6 0 5 0;
#X connect 6 0 39 0;
#X connect 7 0 6 1;
#X connect 8 0 9 0;
#X connect 9 0 10 0;
#X connect 10 0 9 1;
#X connect 10 0 11 0;
#X connect 10 0 33 0;
#X connect 13 0 12 0;
#X connect 13 0 39 1;
#X connect 14 0 13 1;
#X connect 16 0 15 0;
#X connect 16 0 39 2;
#X connect 17 0 16 1;
#X connect 19 0 18 0;
#X connect 19 0 39 3;
#X connect 20 0 19 1;
#X connect 22 0 21 0;
#X connect 22 0 39 4;
#X connect 23 0 22 1;
#X connect 25 0 24 0;
#X connect 25 0 39 5;
#X connect 26 0 25 1;
#X connect 28 0 27 0;
#X connect 28 0 39 6;
#X connect 29 0 28 1;
#X connect 31 0 30 0;
#X connect 31 0 39 7;
#X connect 32 0 31 1;
#X connect 33 0 7 0;
#X connect 33 1 14 0;
#X connect 33 2 17 0;
#X connect 33 3 20 0;
#X connect 33 4 23 0;
#X connect 33 5 26 0;
#X connect 33 6 29 0;
#X connect 33 7 32 0;
#X connect 33 8 34 0;
#X connect 33 8 35 0;
#X connect 34 0 9 1;
#X connect 35 0 7 0;
#X connect 35 0 17 0;
#X connect 35 0 20 0;
#X connect 35 0 23 0;
#X connect 35 0 26 0;
#X connect 35 0 29 0;
#X connect 35 0 32 0;
#X connect 35 0 14 0;
#X connect 36 0 3 0;
#X connect 36 0 8 0;
#X connect 39 0 41 0;
#X connect 40 0 39 0;
#X connect 41 0 42 0;
#X restore 23 103 pd midifreq;
#X obj 618 700 output~;
#X msg 264 30 220;
#X msg 344 27 329.6;
#X obj 452 554 audioswitch~;
#X obj 521 530 tgl 15 0 empty empty empty 17 7 0 10 -262144 -1 -1 0
1;
#X obj 418 15 vsl 15 128 0 127 0 0 empty empty empty 0 -9 0 10 -262144
-1 -1 0 1;
#X obj 426 164 mtof;
#X obj 207 528 tgl 15 0 empty empty empty 17 7 0 10 -262144 -1 -1 0
1;
#X obj 343 553 audioswitch~;
#X obj 412 529 tgl 15 0 empty empty empty 17 7 0 10 -262144 -1 -1 0
1;
#X obj 665 554 audioswitch~;
#X obj 734 530 tgl 15 0 empty empty empty 17 7 0 10 -262144 -1 -1 0
1;
#X obj 312 528 tgl 15 0 empty empty empty 17 7 0 10 -262144 -1 -1 0
1;
#X obj 559 555 audioswitch~;
#X obj 628 531 tgl 15 0 empty empty empty 17 7 0 10 -262144 -1 -1 0
1;
#X obj 138 552 audioswitch~;
#X obj 238 551 audioswitch~;
#X obj 508 185 * 2;
#X msg 515 32 97.99;
#X msg 582 31 195.9;
#X msg 645 34 293.6;
#X msg 715 32 440;
#X msg 795 23 493.8;
#X msg 840 44 587.3;
#N canvas 275 118 691 589 phasor1 0;
#X obj 301 103 inlet frequency;
#X msg 162 135 220;
#X obj 246 172 * 2;
#X obj 415 455 outlet~ right;
#X obj 199 457 outlet~ left;
#X obj 181 213 phasor~;
#X obj 269 212 phasor~;
#X obj 344 212 phasor~;
#X obj 432 211 phasor~;
#X obj 338 173 + 0.5;
#X obj 429 176 + 0.8;
#X obj 253 364 *~ 0.09;
#X obj 406 365 *~ 0.09;
#X connect 0 0 2 0;
#X connect 0 0 5 0;
#X connect 0 0 9 0;
#X connect 0 0 10 0;
#X connect 1 0 2 0;
#X connect 1 0 5 0;
#X connect 1 0 9 0;
#X connect 2 0 6 0;
#X connect 2 0 10 0;
#X connect 5 0 11 0;
#X connect 6 0 11 0;
#X connect 7 0 12 0;
#X connect 8 0 12 0;
#X connect 9 0 7 0;
#X connect 10 0 8 0;
#X connect 11 0 4 0;
#X connect 12 0 3 0;
#X restore 132 527 pd phasor1;
#N canvas 275 118 691 589 phasor2 0;
#X obj 301 103 inlet frequency;
#X msg 162 135 220;
#X obj 246 172 * 2;
#X obj 415 455 outlet~ right;
#X obj 199 457 outlet~ left;
#X obj 181 213 phasor~;
#X obj 269 212 phasor~;
#X obj 344 212 phasor~;
#X obj 432 211 phasor~;
#X obj 338 173 + 0.5;
#X obj 429 176 + 0.8;
#X obj 253 364 *~ 0.09;
#X obj 406 365 *~ 0.09;
#X connect 0 0 2 0;
#X connect 0 0 5 0;
#X connect 0 0 9 0;
#X connect 0 0 10 0;
#X connect 1 0 2 0;
#X connect 1 0 5 0;
#X connect 1 0 9 0;
#X connect 2 0 6 0;
#X connect 2 0 10 0;
#X connect 5 0 11 0;
#X connect 6 0 11 0;
#X connect 7 0 12 0;
#X connect 8 0 12 0;
#X connect 9 0 7 0;
#X connect 10 0 8 0;
#X connect 11 0 4 0;
#X connect 12 0 3 0;
#X restore 237 527 pd phasor2;
#N canvas 623 95 728 500 sine1 0;
#X obj 165 128 osc~;
#X obj 285 18 inlet frequency;
#X obj 253 127 osc~;
#X obj 328 127 osc~;
#X obj 416 126 osc~;
#X msg 146 50 220;
#X obj 230 87 * 2;
#X obj 322 88 + 2;
#X obj 413 91 + 2;
#X obj 399 370 outlet~ right;
#X obj 183 372 outlet~ left;
#X obj 237 279 *~ 0.1;
#X obj 390 280 *~ 0.1;
#X connect 0 0 11 0;
#X connect 1 0 0 0;
#X connect 1 0 6 0;
#X connect 1 0 7 0;
#X connect 1 0 8 0;
#X connect 2 0 11 0;
#X connect 3 0 12 0;
#X connect 4 0 12 0;
#X connect 5 0 0 0;
#X connect 5 0 6 0;
#X connect 5 0 7 0;
#X connect 6 0 2 0;
#X connect 6 0 8 0;
#X connect 7 0 3 0;
#X connect 8 0 4 0;
#X connect 11 0 10 0;
#X connect 12 0 9 0;
#X restore 446 530 pd sine1;
#N canvas 623 95 728 500 sine2 0;
#X obj 165 128 osc~;
#X obj 285 18 inlet frequency;
#X obj 253 127 osc~;
#X obj 328 127 osc~;
#X obj 416 126 osc~;
#X msg 146 50 220;
#X obj 237 279 *~ 0.25;
#X obj 230 87 * 2;
#X obj 322 88 + 2;
#X obj 413 91 + 2;
#X obj 390 280 *~ 0.25;
#X obj 399 370 outlet~ right;
#X obj 183 372 outlet~ left;
#X connect 0 0 6 0;
#X connect 1 0 0 0;
#X connect 1 0 7 0;
#X connect 1 0 8 0;
#X connect 1 0 9 0;
#X connect 2 0 6 0;
#X connect 3 0 10 0;
#X connect 4 0 10 0;
#X connect 5 0 0 0;
#X connect 5 0 7 0;
#X connect 5 0 8 0;
#X connect 6 0 12 0;
#X connect 7 0 2 0;
#X connect 7 0 9 0;
#X connect 8 0 3 0;
#X connect 9 0 4 0;
#X connect 10 0 11 0;
#X restore 659 530 pd sine2;
#N canvas 699 23 657 670 osc1 0;
#X obj 122 381 cos~;
#X floatatom 70 192 4 0 0 0 - - -, f 4;
#X text 101 192 fundamental;
#X floatatom 315 276 4 0 500 0 - - -, f 4;
#X obj 251 318 line~;
#X obj 201 338 *~;
#X obj 251 295 pack 0 50;
#X obj 122 358 +~;
#X text 204 364 modulating;
#X text 209 381 oscillator;
#X obj 201 315 osc~;
#X obj 122 322 phasor~;
#X text 50 308 carrier;
#X text 24 325 oscillator;
#X obj 122 432 outlet~;
#X obj 68 61 inlet;
#X obj 251 224 snapshot~;
#X obj 251 194 osc~ 0.078;
#X obj 336 232 metro 100;
#X msg 249 132 0.078;
#X obj 122 407 *~ 0.05;
#X connect 0 0 20 0;
#X connect 1 0 10 0;
#X connect 1 0 11 0;
#X connect 4 0 5 1;
#X connect 5 0 7 1;
#X connect 6 0 4 0;
#X connect 7 0 0 0;
#X connect 10 0 5 0;
#X connect 11 0 7 0;
#X connect 15 0 1 0;
#X connect 15 0 19 0;
#X connect 16 0 3 0;
#X connect 16 0 6 0;
#X connect 17 0 16 0;
#X connect 18 0 16 0;
#X connect 19 0 17 0;
#X connect 19 0 18 0;
#X connect 20 0 14 0;
#X restore 345 529 pd osc1;
#N canvas 699 23 657 670 osc2 0;
#X obj 122 381 cos~;
#X floatatom 70 192 4 0 0 0 - - -, f 4;
#X text 101 192 fundamental;
#X floatatom 315 276 4 0 500 0 - - -, f 4;
#X obj 251 318 line~;
#X obj 201 338 *~;
#X obj 251 295 pack 0 50;
#X obj 122 358 +~;
#X text 204 364 modulating;
#X text 209 381 oscillator;
#X obj 201 315 osc~;
#X obj 122 322 phasor~;
#X text 50 308 carrier;
#X text 24 325 oscillator;
#X obj 122 432 outlet~;
#X obj 68 61 inlet;
#X obj 251 224 snapshot~;
#X obj 251 194 osc~ 0.078;
#X obj 336 232 metro 100;
#X msg 249 132 0.078;
#X obj 122 407 *~ 0.1;
#X connect 0 0 20 0;
#X connect 1 0 10 0;
#X connect 1 0 11 0;
#X connect 4 0 5 1;
#X connect 5 0 7 1;
#X connect 6 0 4 0;
#X connect 7 0 0 0;
#X connect 10 0 5 0;
#X connect 11 0 7 0;
#X connect 15 0 1 0;
#X connect 15 0 19 0;
#X connect 16 0 3 0;
#X connect 16 0 6 0;
#X connect 17 0 16 0;
#X connect 18 0 16 0;
#X connect 19 0 17 0;
#X connect 19 0 18 0;
#X connect 20 0 14 0;
#X restore 561 531 pd osc2;
#X obj 36 550 audioswitch~;
#X obj 105 526 tgl 15 0 empty empty empty 17 7 0 10 -262144 -1 -1 0
1;
#N canvas 699 23 657 670 osc3 0;
#X obj 122 381 cos~;
#X floatatom 70 192 4 0 0 0 - - -, f 4;
#X text 101 192 fundamental;
#X floatatom 315 276 4 0 500 0 - - -, f 4;
#X obj 251 318 line~;
#X obj 201 338 *~;
#X obj 251 295 pack 0 50;
#X obj 122 358 +~;
#X text 204 364 modulating;
#X text 209 381 oscillator;
#X obj 201 315 osc~;
#X obj 122 322 phasor~;
#X text 50 308 carrier;
#X text 24 325 oscillator;
#X obj 122 432 outlet~;
#X obj 68 61 inlet;
#X obj 251 224 snapshot~;
#X obj 251 194 osc~ 0.078;
#X obj 336 232 metro 100;
#X msg 249 132 0.078;
#X obj 122 407 *~ 0.4;
#X connect 0 0 20 0;
#X connect 1 0 10 0;
#X connect 1 0 11 0;
#X connect 4 0 5 1;
#X connect 5 0 7 1;
#X connect 6 0 4 0;
#X connect 7 0 0 0;
#X connect 10 0 5 0;
#X connect 11 0 7 0;
#X connect 15 0 1 0;
#X connect 15 0 19 0;
#X connect 16 0 3 0;
#X connect 16 0 6 0;
#X connect 17 0 16 0;
#X connect 18 0 16 0;
#X connect 19 0 17 0;
#X connect 19 0 18 0;
#X connect 20 0 14 0;
#X restore 38 526 pd osc3;
#X obj 38 502 / 2;
#N canvas 860 225 450 300 noise 0;
#X obj 201 42 inlet freq;
#X obj 154 105 noise~;
#X obj 109 260 outlet~ left;
#X obj 221 263 outlet~ right;
#X obj 177 164 bp~ \$1 10;
#X floatatom 243 131 5 0 0 0 - - -, f 5;
#X obj 201 91 moses 10000;
#X obj 165 221 *~ 0.25;
#X obj 201 69 * 10;
#X connect 0 0 8 0;
#X connect 1 0 4 0;
#X connect 4 0 7 0;
#X connect 5 0 4 2;
#X connect 6 0 4 1;
#X connect 7 0 2 0;
#X connect 7 0 3 0;
#X connect 8 0 6 0;
#X restore 760 531 pd noise;
#X obj 760 554 audioswitch~;
#X obj 829 530 tgl 15 0 empty empty empty 17 7 0 10 -262144 -1 -1 0
1;
#X connect 2 0 27 0;
#X connect 2 0 29 0;
#X connect 3 0 25 0;
#X connect 4 0 1 0;
#X connect 4 1 1 2;
#X connect 5 0 4 2;
#X connect 6 0 7 0;
#X connect 7 0 25 0;
#X connect 7 0 29 0;
#X connect 7 0 18 0;
#X connect 7 0 27 0;
#X connect 7 0 34 0;
#X connect 8 0 16 2;
#X connect 9 0 1 0;
#X connect 9 1 1 2;
#X connect 10 0 9 2;
#X connect 11 0 1 0;
#X connect 11 1 1 2;
#X connect 12 0 11 2;
#X connect 13 0 17 2;
#X connect 14 0 1 0;
#X connect 14 1 1 2;
#X connect 15 0 14 2;
#X connect 16 0 1 0;
#X connect 16 1 1 2;
#X connect 17 0 1 0;
#X connect 17 1 1 2;
#X connect 18 0 28 0;
#X connect 18 0 26 0;
#X connect 18 0 30 0;
#X connect 19 0 25 0;
#X connect 19 0 34 0;
#X connect 20 0 26 0;
#X connect 21 0 29 0;
#X connect 22 0 28 0;
#X connect 23 0 30 0;
#X connect 24 0 27 0;
#X connect 25 0 16 0;
#X connect 25 1 16 1;
#X connect 26 0 17 0;
#X connect 26 1 17 1;
#X connect 27 0 4 0;
#X connect 27 1 4 1;
#X connect 28 0 11 0;
#X connect 28 1 11 1;
#X connect 29 0 9 0;
#X connect 29 0 9 1;
#X connect 30 0 14 0;
#X connect 30 0 14 1;
#X connect 31 0 1 0;
#X connect 31 1 1 2;
#X connect 32 0 31 2;
#X connect 33 0 31 0;
#X connect 33 0 31 1;
#X connect 34 0 33 0;
#X connect 35 0 36 0;
#X connect 35 1 36 1;
#X connect 36 0 1 0;
#X connect 36 1 1 2;
#X connect 37 0 36 2;
