#N canvas 113 22 1327 828 10;
#N canvas 425 37 717 795 midifreq 0;
#X obj 106 23 notein;
#X obj 98 52 stripnote;
#X obj 22 147 mtof;
#X floatatom 22 167 5 0 0 0 - - -, f 5;
#X floatatom 95 286 5 0 0 0 - - -, f 5;
#X obj 95 266 spigot 1;
#X obj 140 245 tgl 15 1 empty empty empty 17 7 0 10 -262144 -1 -1 0
1;
#X obj 260 109 bng 15 250 50 0 empty empty empty 17 7 0 10 -262144
-1 -1;
#X obj 260 129 f;
#X obj 260 150 + 1;
#X floatatom 330 166 5 0 0 0 - - -, f 5;
#X floatatom 153 287 5 0 0 0 - - -, f 5;
#X obj 153 267 spigot 1;
#X obj 198 246 tgl 15 1 empty empty empty 17 7 0 10 -262144 -1 -1 1
1;
#X floatatom 212 288 5 0 0 0 - - -, f 5;
#X obj 212 268 spigot 1;
#X obj 257 247 tgl 15 1 empty empty empty 17 7 0 10 -262144 -1 -1 1
1;
#X floatatom 270 289 5 0 0 0 - - -, f 5;
#X obj 270 269 spigot 1;
#X obj 315 248 tgl 15 1 empty empty empty 17 7 0 10 -262144 -1 -1 1
1;
#X floatatom 331 290 5 0 0 0 - - -, f 5;
#X obj 331 270 spigot 1;
#X obj 376 249 tgl 15 1 empty empty empty 17 7 0 10 -262144 -1 -1 1
1;
#X floatatom 389 291 5 0 0 0 - - -, f 5;
#X obj 389 271 spigot 1;
#X obj 434 250 tgl 15 1 empty empty empty 17 7 0 10 -262144 -1 -1 1
1;
#X floatatom 448 292 5 0 0 0 - - -, f 5;
#X obj 448 272 spigot 1;
#X obj 493 251 tgl 15 1 empty empty empty 17 7 0 10 -262144 -1 -1 1
1;
#X floatatom 506 293 5 0 0 0 - - -, f 5;
#X obj 506 273 spigot 1;
#X obj 551 252 tgl 15 1 empty empty empty 17 7 0 10 -262144 -1 -1 1
1;
#X obj 259 183 select 1 2 3 4 5 6 7 8;
#X msg 332 112 0;
#X msg 464 187 1;
#X obj 98 98 change;
#X text 251 44 this just records notes of a chord from a midi keyboard
;
#X text 251 63 the idea is to use this to fill a table / lists with
chords \, to be played back later;
#X obj 213 337 pack f f f f f f f f;
#X obj 20 364 bng 15 250 50 0 empty empty empty 17 7 0 10 -262144 -1
-1;
#X msg 271 361 set \$1 \$2 \$3 \$4 \$5 \$6 \$7 \$8;
#X text 12 390 bang this to store notes in chord;
#X floatatom 27 107 5 0 0 0 - - -, f 5;
#X obj 457 114 bng 15 250 50 0 empty empty empty 17 7 0 10 -262144
-1 -1;
#X text 481 113 reset;
#X connect 0 0 1 0;
#X connect 0 2 1 1;
#X connect 1 0 35 0;
#X connect 2 0 3 0;
#X connect 5 0 4 0;
#X connect 5 0 38 0;
#X connect 6 0 5 1;
#X connect 7 0 8 0;
#X connect 8 0 9 0;
#X connect 9 0 8 1;
#X connect 9 0 10 0;
#X connect 9 0 32 0;
#X connect 12 0 11 0;
#X connect 12 0 38 1;
#X connect 13 0 12 1;
#X connect 15 0 14 0;
#X connect 15 0 38 2;
#X connect 16 0 15 1;
#X connect 18 0 17 0;
#X connect 18 0 38 3;
#X connect 19 0 18 1;
#X connect 21 0 20 0;
#X connect 21 0 38 4;
#X connect 22 0 21 1;
#X connect 24 0 23 0;
#X connect 24 0 38 5;
#X connect 25 0 24 1;
#X connect 27 0 26 0;
#X connect 27 0 38 6;
#X connect 28 0 27 1;
#X connect 30 0 29 0;
#X connect 30 0 38 7;
#X connect 31 0 30 1;
#X connect 32 0 6 0;
#X connect 32 1 13 0;
#X connect 32 2 16 0;
#X connect 32 3 19 0;
#X connect 32 4 22 0;
#X connect 32 5 25 0;
#X connect 32 6 28 0;
#X connect 32 7 31 0;
#X connect 32 8 33 0;
#X connect 32 8 34 0;
#X connect 33 0 8 1;
#X connect 34 0 6 0;
#X connect 34 0 16 0;
#X connect 34 0 19 0;
#X connect 34 0 22 0;
#X connect 34 0 25 0;
#X connect 34 0 28 0;
#X connect 34 0 31 0;
#X connect 34 0 13 0;
#X connect 35 0 2 0;
#X connect 35 0 5 0;
#X connect 35 0 12 0;
#X connect 35 0 15 0;
#X connect 35 0 18 0;
#X connect 35 0 21 0;
#X connect 35 0 24 0;
#X connect 35 0 27 0;
#X connect 35 0 30 0;
#X connect 35 0 42 0;
#X connect 35 0 7 0;
#X connect 38 0 40 0;
#X connect 39 0 38 0;
#X connect 43 0 34 0;
#X connect 43 0 33 0;
#X restore 23 103 pd midifreq;
#X obj 618 687 output~;
#X obj 216 599 audioswitch~;
#X obj 285 575 tgl 15 0 empty sine1 empty 17 7 0 10 -262144 -1 -1 493.883
493.883;
#X obj 178 444 tgl 15 0 empty phasor1 empty 17 7 0 10 -262144 -1 -1
195.998 195.998;
#X obj 257 476 audioswitch~;
#X obj 326 452 tgl 15 0 empty osc1 empty 17 7 0 10 -262144 -1 -1 391.995
391.995;
#X obj 380 603 audioswitch~;
#X obj 431 580 tgl 15 0 empty sine2 empty 17 7 0 10 -262144 -1 -1 783.991
783.991;
#X obj 108 630 tgl 15 0 empty phasor2 empty 17 7 0 10 -262144 -1 -1
293.665 293.665;
#X obj 414 454 audioswitch~;
#X obj 483 430 tgl 15 0 empty osc2 empty 17 7 0 10 -262144 -1 -1 587.33
587.33;
#X obj 109 468 audioswitch~;
#X obj 34 653 audioswitch~;
#N canvas 275 118 691 589 phasor1 0;
#X obj 301 103 inlet frequency;
#X msg 162 135 220;
#X obj 246 172 * 2;
#X obj 415 455 outlet~ right;
#X obj 199 457 outlet~ left;
#X obj 181 213 phasor~;
#X obj 269 212 phasor~;
#X obj 344 212 phasor~;
#X obj 432 211 phasor~;
#X obj 338 173 + 0.5;
#X obj 429 176 + 0.8;
#X obj 253 364 *~ 0.09;
#X obj 406 365 *~ 0.09;
#X connect 0 0 2 0;
#X connect 0 0 5 0;
#X connect 0 0 9 0;
#X connect 0 0 10 0;
#X connect 1 0 2 0;
#X connect 1 0 5 0;
#X connect 1 0 9 0;
#X connect 2 0 6 0;
#X connect 2 0 10 0;
#X connect 5 0 11 0;
#X connect 6 0 11 0;
#X connect 7 0 12 0;
#X connect 8 0 12 0;
#X connect 9 0 7 0;
#X connect 10 0 8 0;
#X connect 11 0 4 0;
#X connect 12 0 3 0;
#X restore 109 443 pd phasor1;
#N canvas 275 118 691 589 phasor2 0;
#X obj 301 103 inlet frequency;
#X msg 162 135 220;
#X obj 246 172 * 2;
#X obj 415 455 outlet~ right;
#X obj 199 457 outlet~ left;
#X obj 181 213 phasor~;
#X obj 269 212 phasor~;
#X obj 344 212 phasor~;
#X obj 432 211 phasor~;
#X obj 338 173 + 0.5;
#X obj 429 176 + 0.8;
#X obj 253 364 *~ 0.09;
#X obj 406 365 *~ 0.09;
#X connect 0 0 2 0;
#X connect 0 0 5 0;
#X connect 0 0 9 0;
#X connect 0 0 10 0;
#X connect 1 0 2 0;
#X connect 1 0 5 0;
#X connect 1 0 9 0;
#X connect 2 0 6 0;
#X connect 2 0 10 0;
#X connect 5 0 11 0;
#X connect 6 0 11 0;
#X connect 7 0 12 0;
#X connect 8 0 12 0;
#X connect 9 0 7 0;
#X connect 10 0 8 0;
#X connect 11 0 4 0;
#X connect 12 0 3 0;
#X restore 34 629 pd phasor2;
#N canvas 623 95 728 500 sine1 0;
#X obj 165 128 osc~;
#X obj 285 18 inlet frequency;
#X obj 253 127 osc~;
#X obj 328 127 osc~;
#X obj 416 126 osc~;
#X msg 146 50 220;
#X obj 230 87 * 2;
#X obj 322 88 + 2;
#X obj 413 91 + 2;
#X obj 392 370 outlet~ right;
#X obj 183 372 outlet~ left;
#X obj 254 278 *~ 0.1;
#X obj 416 282 *~ 0.1;
#X obj 164 278 *~ 0.1;
#X obj 329 280 *~ 0.1;
#X connect 0 0 13 0;
#X connect 1 0 0 0;
#X connect 1 0 6 0;
#X connect 1 0 7 0;
#X connect 1 0 8 0;
#X connect 2 0 11 0;
#X connect 3 0 14 0;
#X connect 4 0 12 0;
#X connect 5 0 0 0;
#X connect 5 0 6 0;
#X connect 5 0 7 0;
#X connect 6 0 2 0;
#X connect 6 0 8 0;
#X connect 7 0 3 0;
#X connect 8 0 4 0;
#X connect 11 0 10 0;
#X connect 12 0 9 0;
#X connect 13 0 10 0;
#X connect 14 0 9 0;
#X restore 216 575 pd sine1;
#N canvas 623 95 728 500 sine2 0;
#X obj 165 128 osc~;
#X obj 285 18 inlet frequency;
#X obj 253 127 osc~;
#X obj 328 127 osc~;
#X obj 416 126 osc~;
#X msg 146 50 220;
#X obj 253 279 *~ 0.25;
#X obj 230 87 * 2;
#X obj 322 88 + 2;
#X obj 413 91 + 2;
#X obj 417 279 *~ 0.25;
#X obj 399 370 outlet~ right;
#X obj 183 372 outlet~ left;
#X obj 164 279 *~ 0.25;
#X obj 328 279 *~ 0.25;
#X connect 0 0 13 0;
#X connect 1 0 0 0;
#X connect 1 0 7 0;
#X connect 1 0 8 0;
#X connect 1 0 9 0;
#X connect 2 0 6 0;
#X connect 3 0 14 0;
#X connect 4 0 10 0;
#X connect 5 0 0 0;
#X connect 5 0 7 0;
#X connect 5 0 8 0;
#X connect 6 0 12 0;
#X connect 7 0 2 0;
#X connect 7 0 9 0;
#X connect 8 0 3 0;
#X connect 9 0 4 0;
#X connect 10 0 11 0;
#X connect 13 0 12 0;
#X connect 14 0 11 0;
#X restore 374 579 pd sine2;
#N canvas 699 23 657 670 osc1 0;
#X obj 122 381 cos~;
#X floatatom 70 192 4 0 0 0 - - -, f 4;
#X text 101 192 fundamental;
#X floatatom 315 276 4 0 500 0 - - -, f 4;
#X obj 251 318 line~;
#X obj 201 338 *~;
#X obj 251 295 pack 0 50;
#X obj 122 358 +~;
#X text 204 364 modulating;
#X text 209 381 oscillator;
#X obj 201 315 osc~;
#X obj 122 322 phasor~;
#X text 50 308 carrier;
#X text 24 325 oscillator;
#X obj 122 432 outlet~;
#X obj 68 61 inlet;
#X obj 251 224 snapshot~;
#X obj 251 194 osc~ 0.078;
#X obj 336 232 metro 100;
#X msg 249 132 0.078;
#X obj 122 407 *~ 0.05;
#X connect 0 0 20 0;
#X connect 1 0 10 0;
#X connect 1 0 11 0;
#X connect 4 0 5 1;
#X connect 5 0 7 1;
#X connect 6 0 4 0;
#X connect 7 0 0 0;
#X connect 10 0 5 0;
#X connect 11 0 7 0;
#X connect 15 0 1 0;
#X connect 15 0 19 0;
#X connect 16 0 3 0;
#X connect 16 0 6 0;
#X connect 17 0 16 0;
#X connect 18 0 16 0;
#X connect 19 0 17 0;
#X connect 19 0 18 0;
#X connect 20 0 14 0;
#X restore 259 452 pd osc1;
#N canvas 699 23 657 670 osc2 0;
#X obj 122 381 cos~;
#X floatatom 70 192 4 0 0 0 - - -, f 4;
#X text 101 192 fundamental;
#X floatatom 315 276 4 0 500 0 - - -, f 4;
#X obj 251 318 line~;
#X obj 201 338 *~;
#X obj 251 295 pack 0 50;
#X obj 122 358 +~;
#X text 204 364 modulating;
#X text 209 381 oscillator;
#X obj 201 315 osc~;
#X obj 122 322 phasor~;
#X text 50 308 carrier;
#X text 24 325 oscillator;
#X obj 122 432 outlet~;
#X obj 68 61 inlet;
#X obj 251 224 snapshot~;
#X obj 251 194 osc~ 0.078;
#X obj 336 232 metro 100;
#X msg 249 132 0.078;
#X obj 122 407 *~ 0.1;
#X connect 0 0 20 0;
#X connect 1 0 10 0;
#X connect 1 0 11 0;
#X connect 4 0 5 1;
#X connect 5 0 7 1;
#X connect 6 0 4 0;
#X connect 7 0 0 0;
#X connect 10 0 5 0;
#X connect 11 0 7 0;
#X connect 15 0 1 0;
#X connect 15 0 19 0;
#X connect 16 0 3 0;
#X connect 16 0 6 0;
#X connect 17 0 16 0;
#X connect 18 0 16 0;
#X connect 19 0 17 0;
#X connect 19 0 18 0;
#X connect 20 0 14 0;
#X restore 416 430 pd osc2;
#X obj 18 549 audioswitch~;
#X obj 87 525 tgl 15 0 empty osc3 empty 17 7 0 10 -262144 -1 -1 97.9989
97.9989;
#N canvas 699 23 657 670 osc3 0;
#X obj 122 381 cos~;
#X floatatom 70 192 4 0 0 0 - - -, f 4;
#X text 101 192 fundamental;
#X floatatom 315 276 4 0 500 0 - - -, f 4;
#X obj 251 318 line~;
#X obj 201 338 *~;
#X obj 251 295 pack 0 50;
#X obj 122 358 +~;
#X text 204 364 modulating;
#X text 209 381 oscillator;
#X obj 201 315 osc~;
#X obj 122 322 phasor~;
#X text 50 308 carrier;
#X text 24 325 oscillator;
#X obj 122 432 outlet~;
#X obj 68 61 inlet;
#X obj 251 224 snapshot~;
#X obj 251 194 osc~ 0.078;
#X obj 336 232 metro 100;
#X msg 249 132 0.078;
#X obj 122 407 *~ 0.4;
#X connect 0 0 20 0;
#X connect 1 0 10 0;
#X connect 1 0 11 0;
#X connect 4 0 5 1;
#X connect 5 0 7 1;
#X connect 6 0 4 0;
#X connect 7 0 0 0;
#X connect 10 0 5 0;
#X connect 11 0 7 0;
#X connect 15 0 1 0;
#X connect 15 0 19 0;
#X connect 16 0 3 0;
#X connect 16 0 6 0;
#X connect 17 0 16 0;
#X connect 18 0 16 0;
#X connect 19 0 17 0;
#X connect 19 0 18 0;
#X connect 20 0 14 0;
#X restore 18 525 pd osc3;
#X obj 18 501 / 2;
#N canvas 604 132 450 300 noise 0;
#X obj 201 42 inlet freq;
#X obj 154 105 noise~;
#X obj 109 260 outlet~ left;
#X obj 221 263 outlet~ right;
#X obj 177 164 bp~ \$1 10;
#X floatatom 243 131 5 0 0 0 - - -, f 5;
#X obj 201 91 moses 10000;
#X obj 201 69 * 10;
#X obj 165 221 *~ 0.1;
#X connect 0 0 7 0;
#X connect 1 0 4 0;
#X connect 4 0 8 0;
#X connect 5 0 4 2;
#X connect 6 0 4 1;
#X connect 7 0 6 0;
#X connect 8 0 2 0;
#X connect 8 0 3 0;
#X restore 222 696 pd noise;
#X obj 222 718 audioswitch~;
#X obj 291 695 tgl 15 0 empty noise empty 17 7 0 10 -262144 -1 -1 1174.66
1174.66;
#X obj 18 467 r osc3;
#X obj 109 418 r phasor1;
#X obj 34 604 r phasor2;
#X obj 259 425 r osc1;
#X obj 216 551 r sine1;
#X obj 374 556 r sine2;
#X obj 416 403 r osc2;
#X obj 222 670 r noise;
#N canvas 51 22 1296 685 playback 1;
#X obj -1805 103 s osc3;
#X obj -1752 103 s phasor1;
#X obj -1685 102 s phasor2;
#X obj -1619 101 s osc1;
#X obj -1568 102 s sine1;
#X obj -1516 102 s osc2;
#X obj -1470 102 s sine2;
#X obj -1419 100 s noise;
#X text -1570 -304 G;
#X msg -937 -334 39 51 58 67 74 79 87 91;
#X msg -1711 -269 48 60 67 72 76 79 84 91;
#X msg -912 -302 44 51 56 60 67 68 75 80;
#X text -628 -488 Ab;
#X msg -1715 -239 41 53 60 67 69 72 77 84;
#X text -1472 -429 F;
#X msg -890 -269 38 50 55 57 62 67 69 74;
#X text -629 -456 D;
#X msg -1727 -213 46 53 58 62 65 67 74 79;
#X text -1497 -393 Bb;
#X text -1423 -217 send line to fade out/in;
#X obj -1037 -56 s osc3b;
#X obj -984 -56 s phasor1b;
#X obj -917 -57 s phasor2b;
#X obj -851 -58 s osc1b;
#X obj -800 -57 s sine1b;
#X obj -743 -57 s osc2b;
#X obj -691 -57 s sine2b;
#X obj -629 -56 s noiseb;
#X obj -1686 -134 unpack f f f f f f f f;
#X obj -891 -194 unpack f f f f f f f f;
#X obj -1006 -130 mtof;
#X obj -956 -130 mtof;
#X obj -891 -130 mtof;
#X obj -841 -130 mtof;
#X obj -778 -130 mtof;
#X obj -728 -130 mtof;
#X obj -679 -130 mtof;
#X obj -631 -130 mtof;
#X obj -1278 -491 tgl 15 0 empty empty empty 17 7 0 10 -262144 -1 -1
0 1;
#X obj -1278 -447 f;
#X obj -1278 -425 + 1;
#X msg -1248 -447 0;
#X obj -1278 -469 metro 1000;
#X floatatom -1278 -386 5 0 0 0 - - -, f 5;
#X obj -1092 -422 select 3;
#X obj -1255 -216 s line1;
#X obj -1169 -216 s line2;
#X msg -1254 -316 0 1000;
#X obj -1403 -380 select 6;
#X msg -1155 -250 0 1000;
#X obj -1079 -395 select 9;
#X obj -1388 -347 select 12;
#X obj -1059 -367 select 18;
#X obj -1370 -315 select 21;
#X obj -1417 -407 select 1;
#X msg -1422 -462 1;
#X obj -1040 -334 select 24;
#X obj -1422 -486 r reset;
#X msg -1715 -303 43 55 62 67 71 74 79 86;
#X msg -873 -239 43 55 62 67 71 74 79 86;
#X msg -1249 -250 0.25 1000;
#X msg -1168 -292 0.25 1000;
#X obj -1157 -527 r kill;
#X obj -1339 -16 pack f f f f f f f f;
#X msg -1281 8 set \$1 \$2 \$3 \$4 \$5 \$6 \$7 \$8;
#X msg -1826 -521 97.9989 195.998 293.665 391.995 493.883 587.33 783.991
1174.66;
#X text -1469 -510 G;
#X msg -1826 -475 130.813 261.626 391.995 523.251 659.255 783.991 1046.5
1567.98;
#X text -1566 -269 C;
#X text -1470 -470 C;
#X msg -1828 -429 87.3071 174.614 261.626 391.995 440 523.251 698.456
1046.5;
#X text -1567 -238 F;
#X msg -1828 -401 116.541 174.614 233.082 293.665 349.228 391.995 587.33
783.991;
#X text -1580 -212 Bb;
#X msg -962 -530 77.7817 155.563 233.082 391.995 587.33 783.991 1244.51
1567.98;
#X text -629 -523 Eb;
#X text -791 -333 Eb;
#X msg -962 -495 103.826 155.563 207.652 261.626 391.995 415.305 622.254
830.609;
#X text -765 -303 Ab;
#X msg -962 -457 73.4162 146.832 195.998 220 293.665 391.995 440 587.33
;
#X text -745 -270 D;
#X msg -961 -428 97.9989 195.998 293.665 391.995 493.883 587.33 783.991
1174.66;
#X text -729 -237 G;
#X text -632 -424 G;
#X connect 9 0 29 0;
#X connect 10 0 28 0;
#X connect 11 0 29 0;
#X connect 13 0 28 0;
#X connect 15 0 29 0;
#X connect 17 0 28 0;
#X connect 28 0 0 0;
#X connect 28 1 1 0;
#X connect 28 2 2 0;
#X connect 28 3 3 0;
#X connect 28 4 4 0;
#X connect 28 5 5 0;
#X connect 28 6 6 0;
#X connect 28 7 7 0;
#X connect 29 0 30 0;
#X connect 29 1 31 0;
#X connect 29 2 32 0;
#X connect 29 3 33 0;
#X connect 29 4 34 0;
#X connect 29 5 35 0;
#X connect 29 6 36 0;
#X connect 29 7 37 0;
#X connect 30 0 20 0;
#X connect 31 0 21 0;
#X connect 32 0 22 0;
#X connect 33 0 23 0;
#X connect 34 0 24 0;
#X connect 35 0 25 0;
#X connect 36 0 26 0;
#X connect 37 0 27 0;
#X connect 38 0 42 0;
#X connect 39 0 40 0;
#X connect 40 0 39 1;
#X connect 40 0 43 0;
#X connect 40 0 44 0;
#X connect 40 0 48 0;
#X connect 40 0 50 0;
#X connect 40 0 51 0;
#X connect 40 0 52 0;
#X connect 40 0 53 0;
#X connect 40 0 54 0;
#X connect 40 0 56 0;
#X connect 41 0 39 1;
#X connect 42 0 39 0;
#X connect 44 0 9 0;
#X connect 44 0 61 0;
#X connect 44 0 47 0;
#X connect 47 0 45 0;
#X connect 48 0 60 0;
#X connect 48 0 10 0;
#X connect 48 0 49 0;
#X connect 49 0 46 0;
#X connect 50 0 11 0;
#X connect 50 0 61 0;
#X connect 50 0 47 0;
#X connect 51 0 13 0;
#X connect 51 0 60 0;
#X connect 51 0 49 0;
#X connect 52 0 15 0;
#X connect 52 0 61 0;
#X connect 52 0 47 0;
#X connect 53 0 60 0;
#X connect 53 0 49 0;
#X connect 53 0 17 0;
#X connect 54 0 58 0;
#X connect 54 0 60 0;
#X connect 55 0 38 0;
#X connect 56 0 47 0;
#X connect 56 0 61 0;
#X connect 56 0 59 0;
#X connect 57 0 55 0;
#X connect 57 0 41 0;
#X connect 58 0 28 0;
#X connect 59 0 29 0;
#X connect 60 0 45 0;
#X connect 61 0 46 0;
#X connect 62 0 49 0;
#X connect 62 0 47 0;
#X connect 63 0 64 0;
#X connect 65 0 28 0;
#X connect 67 0 28 0;
#X connect 70 0 28 0;
#X connect 72 0 28 0;
#X connect 74 0 29 0;
#X connect 77 0 29 0;
#X connect 79 0 29 0;
#X connect 81 0 29 0;
#X restore 24 130 pd playback;
#X obj 291 743 throw~ R;
#X obj 222 743 throw~ L;
#X obj 482 476 throw~ R;
#X obj 413 476 throw~ L;
#X obj 448 625 throw~ R;
#X obj 379 625 throw~ L;
#X obj 326 499 throw~ R;
#X obj 257 499 throw~ L;
#X obj 88 573 throw~ R;
#X obj 19 573 throw~ L;
#X obj 178 492 throw~ R;
#X obj 109 492 throw~ L;
#X obj 103 676 throw~ R;
#X obj 34 676 throw~ L;
#X obj 285 629 throw~ R;
#X obj 216 629 throw~ L;
#X obj 518 559 catch~ L;
#X obj 573 559 catch~ R;
#X obj 951 374 audioswitch~;
#X obj 1020 350 tgl 15 0 empty sine1b empty 17 7 0 10 -262144 -1 -1
493.883 493.883;
#X obj 913 219 tgl 15 0 empty phasor1b empty 17 7 0 10 -262144 -1 -1
195.998 195.998;
#X obj 994 251 audioswitch~;
#X obj 1061 227 tgl 15 0 empty osc1b empty 17 7 0 10 -262144 -1 -1
391.995 391.995;
#X obj 1115 378 audioswitch~;
#X obj 1184 356 tgl 15 0 empty sine2b empty 17 7 0 10 -262144 -1 -1
783.991 783.991;
#X obj 843 405 tgl 15 0 empty phasor2b empty 17 7 0 10 -262144 -1 -1
293.665 293.665;
#X obj 1151 229 audioswitch~;
#X obj 1218 206 tgl 15 0 empty osc2b empty 17 7 0 10 -262144 -1 -1
587.33 587.33;
#X obj 838 243 audioswitch~;
#X obj 769 428 audioswitch~;
#N canvas 275 118 691 589 phasor1 0;
#X obj 301 103 inlet frequency;
#X msg 162 135 220;
#X obj 246 172 * 2;
#X obj 415 455 outlet~ right;
#X obj 199 457 outlet~ left;
#X obj 181 213 phasor~;
#X obj 269 212 phasor~;
#X obj 344 212 phasor~;
#X obj 432 211 phasor~;
#X obj 338 173 + 0.5;
#X obj 429 176 + 0.8;
#X obj 253 364 *~ 0.09;
#X obj 406 365 *~ 0.09;
#X connect 0 0 2 0;
#X connect 0 0 5 0;
#X connect 0 0 9 0;
#X connect 0 0 10 0;
#X connect 1 0 2 0;
#X connect 1 0 5 0;
#X connect 1 0 9 0;
#X connect 2 0 6 0;
#X connect 2 0 10 0;
#X connect 5 0 11 0;
#X connect 6 0 11 0;
#X connect 7 0 12 0;
#X connect 8 0 12 0;
#X connect 9 0 7 0;
#X connect 10 0 8 0;
#X connect 11 0 4 0;
#X connect 12 0 3 0;
#X restore 838 218 pd phasor1;
#N canvas 275 118 691 589 phasor2 0;
#X obj 301 103 inlet frequency;
#X msg 162 135 220;
#X obj 246 172 * 2;
#X obj 415 455 outlet~ right;
#X obj 199 457 outlet~ left;
#X obj 181 213 phasor~;
#X obj 269 212 phasor~;
#X obj 344 212 phasor~;
#X obj 432 211 phasor~;
#X obj 338 173 + 0.5;
#X obj 429 176 + 0.8;
#X obj 253 364 *~ 0.09;
#X obj 406 365 *~ 0.09;
#X connect 0 0 2 0;
#X connect 0 0 5 0;
#X connect 0 0 9 0;
#X connect 0 0 10 0;
#X connect 1 0 2 0;
#X connect 1 0 5 0;
#X connect 1 0 9 0;
#X connect 2 0 6 0;
#X connect 2 0 10 0;
#X connect 5 0 11 0;
#X connect 6 0 11 0;
#X connect 7 0 12 0;
#X connect 8 0 12 0;
#X connect 9 0 7 0;
#X connect 10 0 8 0;
#X connect 11 0 4 0;
#X connect 12 0 3 0;
#X restore 769 404 pd phasor2;
#N canvas 623 95 728 500 sine1 0;
#X obj 165 128 osc~;
#X obj 285 18 inlet frequency;
#X obj 253 127 osc~;
#X obj 328 127 osc~;
#X obj 416 126 osc~;
#X msg 146 50 220;
#X obj 230 87 * 2;
#X obj 322 88 + 2;
#X obj 413 91 + 2;
#X obj 399 370 outlet~ right;
#X obj 183 372 outlet~ left;
#X obj 237 279 *~ 0.1;
#X obj 390 280 *~ 0.1;
#X obj 188 279 *~ 0.1;
#X obj 341 280 *~ 0.1;
#X connect 0 0 13 0;
#X connect 1 0 0 0;
#X connect 1 0 6 0;
#X connect 1 0 7 0;
#X connect 1 0 8 0;
#X connect 2 0 11 0;
#X connect 3 0 14 0;
#X connect 4 0 12 0;
#X connect 5 0 0 0;
#X connect 5 0 6 0;
#X connect 5 0 7 0;
#X connect 6 0 2 0;
#X connect 6 0 8 0;
#X connect 7 0 3 0;
#X connect 8 0 4 0;
#X connect 11 0 10 0;
#X connect 12 0 9 0;
#X connect 13 0 10 0;
#X connect 14 0 9 0;
#X restore 951 350 pd sine1;
#N canvas 623 95 728 500 sine2 0;
#X obj 165 128 osc~;
#X obj 285 18 inlet frequency;
#X obj 253 127 osc~;
#X obj 328 127 osc~;
#X obj 416 126 osc~;
#X msg 146 50 220;
#X obj 237 279 *~ 0.25;
#X obj 230 87 * 2;
#X obj 322 88 + 2;
#X obj 413 91 + 2;
#X obj 390 280 *~ 0.25;
#X obj 399 370 outlet~ right;
#X obj 183 372 outlet~ left;
#X obj 175 280 *~ 0.25;
#X obj 328 281 *~ 0.25;
#X connect 0 0 13 0;
#X connect 1 0 0 0;
#X connect 1 0 7 0;
#X connect 1 0 8 0;
#X connect 1 0 9 0;
#X connect 2 0 6 0;
#X connect 3 0 14 0;
#X connect 4 0 10 0;
#X connect 5 0 0 0;
#X connect 5 0 7 0;
#X connect 5 0 8 0;
#X connect 6 0 12 0;
#X connect 7 0 2 0;
#X connect 7 0 9 0;
#X connect 8 0 3 0;
#X connect 9 0 4 0;
#X connect 10 0 11 0;
#X connect 13 0 12 0;
#X connect 14 0 11 0;
#X restore 1115 354 pd sine2;
#N canvas 699 23 657 670 osc1 0;
#X obj 122 381 cos~;
#X floatatom 70 192 4 0 0 0 - - -, f 4;
#X text 101 192 fundamental;
#X floatatom 315 276 4 0 500 0 - - -, f 4;
#X obj 251 318 line~;
#X obj 201 338 *~;
#X obj 251 295 pack 0 50;
#X obj 122 358 +~;
#X text 204 364 modulating;
#X text 209 381 oscillator;
#X obj 201 315 osc~;
#X obj 122 322 phasor~;
#X text 50 308 carrier;
#X text 24 325 oscillator;
#X obj 122 432 outlet~;
#X obj 68 61 inlet;
#X obj 251 224 snapshot~;
#X obj 251 194 osc~ 0.078;
#X obj 336 232 metro 100;
#X msg 249 132 0.078;
#X obj 122 407 *~ 0.05;
#X connect 0 0 20 0;
#X connect 1 0 10 0;
#X connect 1 0 11 0;
#X connect 4 0 5 1;
#X connect 5 0 7 1;
#X connect 6 0 4 0;
#X connect 7 0 0 0;
#X connect 10 0 5 0;
#X connect 11 0 7 0;
#X connect 15 0 1 0;
#X connect 15 0 19 0;
#X connect 16 0 3 0;
#X connect 16 0 6 0;
#X connect 17 0 16 0;
#X connect 18 0 16 0;
#X connect 19 0 17 0;
#X connect 19 0 18 0;
#X connect 20 0 14 0;
#X restore 994 227 pd osc1;
#N canvas 699 23 657 670 osc2 0;
#X obj 122 381 cos~;
#X floatatom 70 192 4 0 0 0 - - -, f 4;
#X text 101 192 fundamental;
#X floatatom 315 276 4 0 500 0 - - -, f 4;
#X obj 251 318 line~;
#X obj 201 338 *~;
#X obj 251 295 pack 0 50;
#X obj 122 358 +~;
#X text 204 364 modulating;
#X text 209 381 oscillator;
#X obj 201 315 osc~;
#X obj 122 322 phasor~;
#X text 50 308 carrier;
#X text 24 325 oscillator;
#X obj 122 432 outlet~;
#X obj 68 61 inlet;
#X obj 251 224 snapshot~;
#X obj 251 194 osc~ 0.078;
#X obj 336 232 metro 100;
#X msg 249 132 0.078;
#X obj 122 407 *~ 0.1;
#X connect 0 0 20 0;
#X connect 1 0 10 0;
#X connect 1 0 11 0;
#X connect 4 0 5 1;
#X connect 5 0 7 1;
#X connect 6 0 4 0;
#X connect 7 0 0 0;
#X connect 10 0 5 0;
#X connect 11 0 7 0;
#X connect 15 0 1 0;
#X connect 15 0 19 0;
#X connect 16 0 3 0;
#X connect 16 0 6 0;
#X connect 17 0 16 0;
#X connect 18 0 16 0;
#X connect 19 0 17 0;
#X connect 19 0 18 0;
#X connect 20 0 14 0;
#X restore 1151 205 pd osc2;
#X obj 753 324 audioswitch~;
#X obj 822 300 tgl 15 0 empty osc3b empty 17 7 0 10 -262144 -1 -1 97.9989
97.9989;
#N canvas 699 23 657 670 osc3 0;
#X obj 122 381 cos~;
#X floatatom 70 192 4 0 0 0 - - -, f 4;
#X text 101 192 fundamental;
#X floatatom 315 276 4 0 500 0 - - -, f 4;
#X obj 251 318 line~;
#X obj 201 338 *~;
#X obj 251 295 pack 0 50;
#X obj 122 358 +~;
#X text 204 364 modulating;
#X text 209 381 oscillator;
#X obj 201 315 osc~;
#X obj 122 322 phasor~;
#X text 50 308 carrier;
#X text 24 325 oscillator;
#X obj 122 432 outlet~;
#X obj 68 61 inlet;
#X obj 251 224 snapshot~;
#X obj 251 194 osc~ 0.078;
#X obj 336 232 metro 100;
#X msg 249 132 0.078;
#X obj 122 407 *~ 0.4;
#X connect 0 0 20 0;
#X connect 1 0 10 0;
#X connect 1 0 11 0;
#X connect 4 0 5 1;
#X connect 5 0 7 1;
#X connect 6 0 4 0;
#X connect 7 0 0 0;
#X connect 10 0 5 0;
#X connect 11 0 7 0;
#X connect 15 0 1 0;
#X connect 15 0 19 0;
#X connect 16 0 3 0;
#X connect 16 0 6 0;
#X connect 17 0 16 0;
#X connect 18 0 16 0;
#X connect 19 0 17 0;
#X connect 19 0 18 0;
#X connect 20 0 14 0;
#X restore 753 300 pd osc3;
#X obj 753 276 / 2;
#N canvas 860 225 450 300 noise 0;
#X obj 201 42 inlet freq;
#X obj 154 105 noise~;
#X obj 109 260 outlet~ left;
#X obj 221 263 outlet~ right;
#X obj 177 164 bp~ \$1 10;
#X floatatom 243 131 5 0 0 0 - - -, f 5;
#X obj 201 91 moses 10000;
#X obj 201 69 * 10;
#X obj 165 221 *~ 0.1;
#X connect 0 0 7 0;
#X connect 1 0 4 0;
#X connect 4 0 8 0;
#X connect 5 0 4 2;
#X connect 6 0 4 1;
#X connect 7 0 6 0;
#X connect 8 0 2 0;
#X connect 8 0 3 0;
#X restore 957 471 pd noise;
#X obj 957 493 audioswitch~;
#X obj 1026 470 tgl 15 0 empty noiseb empty 17 7 0 10 -262144 -1 -1
1174.66 1174.66;
#X obj 753 242 r osc3b;
#X obj 838 194 r phasor1b;
#X obj 994 204 r osc1b;
#X obj 1151 178 r osc2b;
#X obj 1115 329 r sine2b;
#X obj 951 324 r sine1b;
#X obj 769 380 r phasor2b;
#X obj 957 446 r noiseb;
#X obj 677 564 catch~ Lb;
#X obj 737 564 catch~ Rb;
#X obj 753 348 throw~ Lb;
#X obj 823 348 throw~ Rb;
#X obj 838 267 throw~ Lb;
#X obj 913 267 throw~ Rb;
#X obj 994 274 throw~ Lb;
#X obj 1061 274 throw~ Rb;
#X obj 1151 251 throw~ Lb;
#X obj 1219 251 throw~ Rb;
#X obj 769 451 throw~ Lb;
#X obj 838 451 throw~ Rb;
#X obj 951 398 throw~ Lb;
#X obj 1020 398 throw~ Rb;
#X obj 1115 400 throw~ Lb;
#X obj 1184 400 throw~ Rb;
#X obj 957 518 throw~ Lb;
#X obj 1026 518 throw~ Rb;
#X obj 587 595 r line1;
#X obj 526 595 r line1;
#X obj 754 591 r line2;
#X obj 693 591 r line2;
#X obj 21 20 bng 30 250 50 0 empty empty empty 17 7 0 10 -1 -4034 -1
;
#X obj 21 58 s reset;
#X text 523 49 timing - change;
#X text 523 67 start sorting out different strings;
#X obj 519 644 *~ 0;
#X obj 573 644 *~ 0;
#X obj 678 649 *~ 0;
#X obj 732 649 *~ 0;
#N canvas 497 40 809 394 synthonoffs 0;
#X obj 36 -79 hradio 15 1 0 3 empty empty empty 0 -8 0 10 -262144 -1
-1 0;
#X obj 36 -59 + 1;
#X obj 114 -79 hradio 15 1 0 3 empty empty empty 0 -8 0 10 -262144
-1 -1 0;
#X obj 114 -59 + 1;
#X msg 36 -36 \; osc\$1 1;
#X msg 114 -36 \; osc\$1 0;
#X obj 419 -78 hradio 15 1 0 3 empty empty empty 0 -8 0 10 -262144
-1 -1 0;
#X obj 419 -58 + 1;
#X obj 499 -78 hradio 15 1 0 3 empty empty empty 0 -8 0 10 -262144
-1 -1 0;
#X obj 499 -58 + 1;
#X msg 419 -35 \; osc\$1b 1;
#X msg 499 -35 \; osc\$1b 0;
#X obj 39 20 hradio 15 1 0 2 empty empty empty 0 -8 0 10 -262144 -1
-1 0;
#X obj 39 40 + 1;
#X obj 114 20 hradio 15 1 0 2 empty empty empty 0 -8 0 10 -262144 -1
-1 0;
#X obj 114 40 + 1;
#X msg 39 63 \; phasor\$1 1;
#X msg 114 63 \; phasor\$1 0;
#X obj 417 23 hradio 15 1 0 2 empty empty empty 0 -8 0 10 -262144 -1
-1 0;
#X obj 417 43 + 1;
#X obj 502 23 hradio 15 1 0 2 empty empty empty 0 -8 0 10 -262144 -1
-1 0;
#X obj 502 43 + 1;
#X msg 417 66 \; phasor\$1b 1;
#X msg 502 66 \; phasor\$1b 0;
#X obj 39 119 hradio 15 1 0 2 empty empty empty 0 -8 0 10 -262144 -1
-1 0;
#X obj 39 139 + 1;
#X obj 114 119 hradio 15 1 0 2 empty empty empty 0 -8 0 10 -262144
-1 -1 0;
#X obj 114 139 + 1;
#X obj 417 122 hradio 15 1 0 2 empty empty empty 0 -8 0 10 -262144
-1 -1 0;
#X obj 417 142 + 1;
#X obj 502 122 hradio 15 1 0 2 empty empty empty 0 -8 0 10 -262144
-1 -1 0;
#X obj 502 142 + 1;
#X msg 39 162 \; sine\$1 1;
#X msg 114 162 \; sine\$1 0;
#X msg 417 165 \; sine\$1b 1;
#X msg 502 165 \; sine\$1b 0;
#X msg 39 210 \; noise 1;
#X msg 114 210 \; noise 0;
#X msg 417 217 \; noiseb 1;
#X msg 502 217 \; noiseb 0;
#X obj 637 25 f;
#X msg 637 3 1 \, 2 \, 3 \,;
#X msg 636 65 1 \, 2 \,;
#X obj 636 87 f;
#X obj 637 -41 bng 15 250 50 0 empty synth-on empty 17 7 0 10 -262144
-1 -1;
#X obj 722 24 f;
#X msg 722 2 1 \, 2 \, 3 \,;
#X msg 721 64 1 \, 2 \,;
#X obj 721 86 f;
#X obj 722 -42 bng 15 250 50 0 empty synth-off empty 17 7 0 10 -262144
-1 -1;
#X obj 228 -1 f;
#X msg 228 -23 1 \, 2 \, 3 \,;
#X msg 227 39 1 \, 2 \,;
#X obj 227 61 f;
#X obj 228 -67 bng 15 250 50 0 empty synth-on empty 17 7 0 10 -262144
-1 -1;
#X obj 313 -2 f;
#X msg 313 -24 1 \, 2 \, 3 \,;
#X msg 312 38 1 \, 2 \,;
#X obj 312 60 f;
#X obj 313 -68 bng 15 250 50 0 empty synth-off empty 17 7 0 10 -262144
-1 -1;
#X connect 0 0 1 0;
#X connect 1 0 4 0;
#X connect 2 0 3 0;
#X connect 3 0 5 0;
#X connect 6 0 7 0;
#X connect 7 0 10 0;
#X connect 8 0 9 0;
#X connect 9 0 11 0;
#X connect 12 0 13 0;
#X connect 13 0 16 0;
#X connect 14 0 15 0;
#X connect 15 0 17 0;
#X connect 18 0 19 0;
#X connect 19 0 22 0;
#X connect 20 0 21 0;
#X connect 21 0 23 0;
#X connect 24 0 25 0;
#X connect 25 0 32 0;
#X connect 26 0 27 0;
#X connect 27 0 33 0;
#X connect 28 0 29 0;
#X connect 29 0 34 0;
#X connect 30 0 31 0;
#X connect 31 0 35 0;
#X connect 40 0 10 0;
#X connect 41 0 40 0;
#X connect 42 0 43 0;
#X connect 43 0 22 0;
#X connect 43 0 34 0;
#X connect 44 0 41 0;
#X connect 44 0 38 0;
#X connect 44 0 42 0;
#X connect 45 0 11 0;
#X connect 46 0 45 0;
#X connect 47 0 48 0;
#X connect 48 0 23 0;
#X connect 48 0 35 0;
#X connect 49 0 46 0;
#X connect 49 0 39 0;
#X connect 49 0 47 0;
#X connect 50 0 4 0;
#X connect 51 0 50 0;
#X connect 52 0 53 0;
#X connect 53 0 16 0;
#X connect 53 0 32 0;
#X connect 54 0 51 0;
#X connect 54 0 52 0;
#X connect 54 0 36 0;
#X connect 55 0 5 0;
#X connect 56 0 55 0;
#X connect 57 0 58 0;
#X connect 58 0 17 0;
#X connect 58 0 33 0;
#X connect 59 0 56 0;
#X connect 59 0 57 0;
#X connect 59 0 37 0;
#X restore 23 158 pd synthonoffs;
#X obj 399 24 bng 30 250 50 0 synth-off empty empty 17 7 0 10 -1 -258113
-1;
#X obj 335 24 bng 30 250 50 0 synth-on empty empty 17 7 0 10 -1 -4034
-1;
#X obj 226 28 bng 30 250 50 0 kill empty empty 17 7 0 10 -1 -4034 -1
;
#X text 259 35 KILL;
#X text 328 58 SYNTH ON;
#X text 391 57 SYNTH OFF;
#X obj 526 618 line 0;
#X obj 599 617 line 0;
#X floatatom 515 704 5 0 0 0 - - -, f 5;
#X obj 754 623 line 0;
#X obj 693 623 line 0;
#X connect 2 0 51 0;
#X connect 2 1 50 0;
#X connect 3 0 2 2;
#X connect 4 0 12 2;
#X connect 5 0 43 0;
#X connect 5 1 42 0;
#X connect 6 0 5 2;
#X connect 7 0 41 0;
#X connect 7 1 40 0;
#X connect 8 0 7 2;
#X connect 9 0 13 2;
#X connect 10 0 39 0;
#X connect 10 1 38 0;
#X connect 11 0 10 2;
#X connect 12 0 47 0;
#X connect 12 1 46 0;
#X connect 13 0 49 0;
#X connect 13 1 48 0;
#X connect 14 0 12 0;
#X connect 14 1 12 1;
#X connect 15 0 13 0;
#X connect 15 1 13 1;
#X connect 16 0 2 0;
#X connect 16 1 2 1;
#X connect 17 0 7 0;
#X connect 17 1 7 1;
#X connect 18 0 5 0;
#X connect 18 0 5 1;
#X connect 19 0 10 0;
#X connect 19 0 10 1;
#X connect 20 0 45 0;
#X connect 20 1 44 0;
#X connect 21 0 20 2;
#X connect 22 0 20 0;
#X connect 22 0 20 1;
#X connect 23 0 22 0;
#X connect 24 0 25 0;
#X connect 24 1 25 1;
#X connect 25 0 37 0;
#X connect 25 1 36 0;
#X connect 26 0 25 2;
#X connect 27 0 23 0;
#X connect 28 0 14 0;
#X connect 29 0 15 0;
#X connect 30 0 18 0;
#X connect 31 0 16 0;
#X connect 32 0 17 0;
#X connect 33 0 19 0;
#X connect 34 0 24 0;
#X connect 52 0 113 0;
#X connect 53 0 114 0;
#X connect 54 0 99 0;
#X connect 54 1 100 0;
#X connect 55 0 54 2;
#X connect 56 0 64 2;
#X connect 57 0 93 0;
#X connect 57 1 94 0;
#X connect 58 0 57 2;
#X connect 59 0 101 0;
#X connect 59 1 102 0;
#X connect 60 0 59 2;
#X connect 61 0 65 2;
#X connect 62 0 95 0;
#X connect 62 1 96 0;
#X connect 63 0 62 2;
#X connect 64 0 91 0;
#X connect 64 1 92 0;
#X connect 65 0 97 0;
#X connect 65 1 98 0;
#X connect 66 0 64 0;
#X connect 66 1 64 1;
#X connect 67 0 65 0;
#X connect 67 1 65 1;
#X connect 68 0 54 0;
#X connect 68 1 54 1;
#X connect 69 0 59 0;
#X connect 69 1 59 1;
#X connect 70 0 57 0;
#X connect 70 0 57 1;
#X connect 71 0 62 0;
#X connect 71 0 62 1;
#X connect 72 0 89 0;
#X connect 72 1 90 0;
#X connect 73 0 72 2;
#X connect 74 0 72 0;
#X connect 74 0 72 1;
#X connect 75 0 74 0;
#X connect 76 0 77 0;
#X connect 76 1 77 1;
#X connect 77 0 103 0;
#X connect 77 1 104 0;
#X connect 78 0 77 2;
#X connect 79 0 75 0;
#X connect 80 0 66 0;
#X connect 81 0 70 0;
#X connect 82 0 71 0;
#X connect 83 0 69 0;
#X connect 84 0 68 0;
#X connect 85 0 67 0;
#X connect 86 0 76 0;
#X connect 87 0 115 0;
#X connect 88 0 116 0;
#X connect 105 0 125 0;
#X connect 106 0 124 0;
#X connect 107 0 127 0;
#X connect 108 0 128 0;
#X connect 109 0 110 0;
#X connect 113 0 1 0;
#X connect 114 0 1 2;
#X connect 115 0 1 0;
#X connect 116 0 1 2;
#X connect 124 0 113 1;
#X connect 124 0 126 0;
#X connect 125 0 114 1;
#X connect 127 0 116 1;
#X connect 128 0 115 1;
