#N canvas 242 22 1327 828 10;
#N canvas 306 22 828 791 midifreq 1;
#X obj 106 23 notein;
#X obj 98 52 stripnote;
#X obj 22 147 mtof;
#X floatatom 22 167 5 0 0 0 - - -, f 5;
#X floatatom 95 286 5 0 0 0 - - -, f 5;
#X obj 95 266 spigot 1;
#X obj 140 245 tgl 15 1 empty empty empty 17 7 0 10 -262144 -1 -1 0
1;
#X obj 260 109 bng 15 250 50 0 empty empty empty 17 7 0 10 -262144
-1 -1;
#X obj 260 129 f;
#X obj 260 150 + 1;
#X floatatom 330 166 5 0 0 0 - - -, f 5;
#X floatatom 153 287 5 0 0 0 - - -, f 5;
#X obj 153 267 spigot 1;
#X obj 198 246 tgl 15 1 empty empty empty 17 7 0 10 -262144 -1 -1 0
1;
#X floatatom 212 288 5 0 0 0 - - -, f 5;
#X obj 212 268 spigot 1;
#X obj 257 247 tgl 15 1 empty empty empty 17 7 0 10 -262144 -1 -1 0
1;
#X floatatom 270 289 5 0 0 0 - - -, f 5;
#X obj 270 269 spigot 1;
#X obj 315 248 tgl 15 1 empty empty empty 17 7 0 10 -262144 -1 -1 0
1;
#X floatatom 331 290 5 0 0 0 - - -, f 5;
#X obj 331 270 spigot 1;
#X obj 376 249 tgl 15 1 empty empty empty 17 7 0 10 -262144 -1 -1 0
1;
#X floatatom 389 291 5 0 0 0 - - -, f 5;
#X obj 389 271 spigot 1;
#X obj 434 250 tgl 15 1 empty empty empty 17 7 0 10 -262144 -1 -1 0
1;
#X floatatom 448 292 5 0 0 0 - - -, f 5;
#X obj 448 272 spigot 1;
#X obj 493 251 tgl 15 1 empty empty empty 17 7 0 10 -262144 -1 -1 0
1;
#X floatatom 506 293 5 0 0 0 - - -, f 5;
#X obj 506 273 spigot 1;
#X obj 551 252 tgl 15 1 empty empty empty 17 7 0 10 -262144 -1 -1 0
1;
#X obj 259 183 select 1 2 3 4 5 6 7 8;
#X msg 332 112 0;
#X msg 464 187 1;
#X obj 98 98 change;
#X text 251 44 this just records notes of a chord from a midi keyboard
;
#X text 251 63 the idea is to use this to fill a table / lists with
chords \, to be played back later;
#X obj 271 372 pack f f f f f f f f;
#X obj 20 364 bng 15 250 50 0 empty empty empty 17 7 0 10 -262144 -1
-1;
#X msg 271 398 set \$1 \$2 \$3 \$4 \$5 \$6 \$7 \$8;
#X text 12 390 bang this to store notes in chord;
#X floatatom 27 107 5 0 0 0 - - -, f 5;
#X obj 464 121 bng 15 250 50 0 empty empty empty 17 7 0 10 -262144
-1 -1;
#X text 488 120 reset;
#X obj 167 320 mtof;
#X obj 130 319 mtof;
#X obj 244 320 mtof;
#X obj 207 319 mtof;
#X obj 354 319 mtof;
#X obj 317 318 mtof;
#X obj 431 319 mtof;
#X obj 394 318 mtof;
#X connect 0 0 1 0;
#X connect 0 2 1 1;
#X connect 1 0 35 0;
#X connect 2 0 3 0;
#X connect 5 0 4 0;
#X connect 5 0 46 0;
#X connect 6 0 5 1;
#X connect 7 0 8 0;
#X connect 8 0 9 0;
#X connect 9 0 8 1;
#X connect 9 0 10 0;
#X connect 9 0 32 0;
#X connect 12 0 11 0;
#X connect 12 0 45 0;
#X connect 13 0 12 1;
#X connect 15 0 14 0;
#X connect 15 0 48 0;
#X connect 16 0 15 1;
#X connect 18 0 17 0;
#X connect 18 0 47 0;
#X connect 19 0 18 1;
#X connect 21 0 20 0;
#X connect 21 0 50 0;
#X connect 22 0 21 1;
#X connect 23 0 49 0;
#X connect 24 0 23 0;
#X connect 25 0 24 1;
#X connect 26 0 52 0;
#X connect 27 0 26 0;
#X connect 28 0 27 1;
#X connect 30 0 29 0;
#X connect 30 0 51 0;
#X connect 31 0 30 1;
#X connect 32 0 6 0;
#X connect 32 1 13 0;
#X connect 32 2 16 0;
#X connect 32 3 19 0;
#X connect 32 4 22 0;
#X connect 32 5 25 0;
#X connect 32 6 28 0;
#X connect 32 7 31 0;
#X connect 32 8 33 0;
#X connect 32 8 34 0;
#X connect 33 0 8 1;
#X connect 34 0 6 0;
#X connect 34 0 16 0;
#X connect 34 0 19 0;
#X connect 34 0 22 0;
#X connect 34 0 25 0;
#X connect 34 0 28 0;
#X connect 34 0 31 0;
#X connect 34 0 13 0;
#X connect 35 0 2 0;
#X connect 35 0 5 0;
#X connect 35 0 12 0;
#X connect 35 0 15 0;
#X connect 35 0 18 0;
#X connect 35 0 21 0;
#X connect 35 0 24 0;
#X connect 35 0 27 0;
#X connect 35 0 30 0;
#X connect 35 0 42 0;
#X connect 35 0 7 0;
#X connect 38 0 40 0;
#X connect 39 0 38 0;
#X connect 43 0 34 0;
#X connect 43 0 33 0;
#X connect 45 0 38 1;
#X connect 46 0 38 0;
#X connect 47 0 38 3;
#X connect 48 0 38 2;
#X connect 49 0 38 5;
#X connect 50 0 38 4;
#X connect 51 0 38 7;
#X connect 52 0 38 6;
#X restore 22 154 pd midifreq;
#X obj 618 687 output~;
#X obj 515 405 catch~ L;
#X obj 570 405 catch~ R;
#X obj 675 410 catch~ Lb;
#X obj 735 410 catch~ Rb;
#X obj 587 595 r line1;
#X obj 526 595 r line1;
#X obj 759 591 r line2;
#X obj 693 591 r line2;
#X obj 519 644 *~ 0;
#X obj 573 644 *~ 0;
#X obj 677 649 *~ 0;
#X obj 737 649 *~ 0;
#X obj 226 28 bng 30 250 50 0 kill kill empty 17 7 0 10 -1 -4034 -1
;
#X text 259 35 KILL;
#X obj 526 618 line 0;
#X obj 599 617 line 0;
#X obj 759 623 line 0;
#X obj 693 623 line 0;
#N canvas 77 128 1428 761 synths 0;
#N canvas 275 118 691 589 phasor2 0;
#X obj 301 103 inlet frequency;
#X msg 162 135 220;
#X obj 246 172 * 2;
#X obj 415 455 outlet~ right;
#X obj 199 457 outlet~ left;
#X obj 181 213 phasor~;
#X obj 269 212 phasor~;
#X obj 344 212 phasor~;
#X obj 432 211 phasor~;
#X obj 338 173 + 0.5;
#X obj 429 176 + 0.8;
#X obj 253 364 *~ 0.05;
#X obj 407 366 *~ 0.05;
#X connect 0 0 2 0;
#X connect 0 0 5 0;
#X connect 0 0 9 0;
#X connect 0 0 10 0;
#X connect 1 0 2 0;
#X connect 1 0 5 0;
#X connect 1 0 9 0;
#X connect 2 0 6 0;
#X connect 2 0 10 0;
#X connect 5 0 11 0;
#X connect 6 0 11 0;
#X connect 7 0 12 0;
#X connect 8 0 12 0;
#X connect 9 0 7 0;
#X connect 10 0 8 0;
#X connect 11 0 4 0;
#X connect 12 0 3 0;
#X restore 44 369 pd phasor2;
#N canvas 623 95 728 500 sine1 0;
#X obj 165 128 osc~;
#X obj 285 18 inlet frequency;
#X obj 253 127 osc~;
#X obj 328 127 osc~;
#X obj 416 126 osc~;
#X msg 146 50 220;
#X obj 230 87 * 2;
#X obj 322 88 + 2;
#X obj 413 91 + 2;
#X obj 392 370 outlet~ right;
#X obj 183 372 outlet~ left;
#X obj 163 278 *~ 0.09;
#X obj 254 278 *~ 0.09;
#X obj 329 279 *~ 0.09;
#X obj 417 281 *~ 0.09;
#X connect 0 0 11 0;
#X connect 1 0 0 0;
#X connect 1 0 6 0;
#X connect 1 0 7 0;
#X connect 1 0 8 0;
#X connect 2 0 12 0;
#X connect 3 0 13 0;
#X connect 4 0 14 0;
#X connect 5 0 0 0;
#X connect 5 0 6 0;
#X connect 5 0 7 0;
#X connect 6 0 2 0;
#X connect 6 0 8 0;
#X connect 7 0 3 0;
#X connect 8 0 4 0;
#X connect 11 0 10 0;
#X connect 12 0 10 0;
#X connect 13 0 9 0;
#X connect 14 0 9 0;
#X restore 232 366 pd sine1;
#N canvas 623 95 728 500 sine2 0;
#X obj 165 128 osc~;
#X obj 285 18 inlet frequency;
#X obj 253 127 osc~;
#X obj 328 127 osc~;
#X obj 416 126 osc~;
#X msg 146 50 220;
#X obj 230 87 * 2;
#X obj 322 88 + 2;
#X obj 413 91 + 2;
#X obj 399 370 outlet~ right;
#X obj 183 372 outlet~ left;
#X obj 164 279 *~ 0.09;
#X obj 253 279 *~ 0.09;
#X obj 328 277 *~ 0.09;
#X obj 417 278 *~ 0.09;
#X connect 0 0 11 0;
#X connect 1 0 0 0;
#X connect 1 0 6 0;
#X connect 1 0 7 0;
#X connect 1 0 8 0;
#X connect 2 0 12 0;
#X connect 3 0 13 0;
#X connect 4 0 14 0;
#X connect 5 0 0 0;
#X connect 5 0 6 0;
#X connect 5 0 7 0;
#X connect 6 0 2 0;
#X connect 6 0 8 0;
#X connect 7 0 3 0;
#X connect 8 0 4 0;
#X connect 11 0 10 0;
#X connect 12 0 10 0;
#X connect 13 0 9 0;
#X connect 14 0 9 0;
#X restore 390 371 pd sine2;
#N canvas 699 23 657 670 osc1 0;
#X obj 122 381 cos~;
#X floatatom 70 192 4 0 0 0 - - -, f 4;
#X text 101 192 fundamental;
#X floatatom 315 276 4 0 500 0 - - -, f 4;
#X obj 251 318 line~;
#X obj 201 338 *~;
#X obj 251 295 pack 0 50;
#X obj 122 358 +~;
#X text 204 364 modulating;
#X text 209 381 oscillator;
#X obj 201 315 osc~;
#X obj 122 322 phasor~;
#X text 50 308 carrier;
#X text 24 325 oscillator;
#X obj 122 432 outlet~;
#X obj 68 61 inlet;
#X obj 251 224 snapshot~;
#X obj 251 194 osc~ 0.204;
#X obj 336 232 metro 100;
#X obj 122 407 *~ 0.1;
#X msg 249 132 0.1;
#X connect 0 0 19 0;
#X connect 1 0 10 0;
#X connect 1 0 11 0;
#X connect 4 0 5 1;
#X connect 5 0 7 1;
#X connect 6 0 4 0;
#X connect 7 0 0 0;
#X connect 10 0 5 0;
#X connect 11 0 7 0;
#X connect 15 0 1 0;
#X connect 15 0 20 0;
#X connect 16 0 3 0;
#X connect 16 0 6 0;
#X connect 17 0 16 0;
#X connect 18 0 16 0;
#X connect 19 0 14 0;
#X connect 20 0 17 0;
#X connect 20 0 18 0;
#X restore 56 213 pd osc1;
#N canvas 699 23 657 670 osc2 0;
#X obj 122 381 cos~;
#X floatatom 70 192 4 0 0 0 - - -, f 4;
#X text 101 192 fundamental;
#X floatatom 315 276 4 0 500 0 - - -, f 4;
#X obj 251 318 line~;
#X obj 201 338 *~;
#X obj 251 295 pack 0 50;
#X obj 122 358 +~;
#X text 204 364 modulating;
#X text 209 381 oscillator;
#X obj 201 315 osc~;
#X obj 122 322 phasor~;
#X text 50 308 carrier;
#X text 24 325 oscillator;
#X obj 122 432 outlet~;
#X obj 68 61 inlet;
#X obj 251 224 snapshot~;
#X obj 251 194 osc~ 0.204;
#X obj 336 232 metro 100;
#X obj 122 407 *~ 0.09;
#X msg 249 132 0.1;
#X connect 0 0 19 0;
#X connect 1 0 10 0;
#X connect 1 0 11 0;
#X connect 4 0 5 1;
#X connect 5 0 7 1;
#X connect 6 0 4 0;
#X connect 7 0 0 0;
#X connect 10 0 5 0;
#X connect 11 0 7 0;
#X connect 15 0 1 0;
#X connect 15 0 20 0;
#X connect 16 0 3 0;
#X connect 16 0 6 0;
#X connect 17 0 16 0;
#X connect 18 0 16 0;
#X connect 19 0 14 0;
#X connect 20 0 17 0;
#X connect 20 0 18 0;
#X restore 238 212 pd osc2;
#N canvas 699 23 657 670 osc3 0;
#X obj 122 381 cos~;
#X floatatom 70 192 4 0 0 0 - - -, f 4;
#X text 101 192 fundamental;
#X floatatom 315 276 4 0 500 0 - - -, f 4;
#X obj 251 318 line~;
#X obj 201 338 *~;
#X obj 251 295 pack 0 50;
#X obj 122 358 +~;
#X text 204 364 modulating;
#X text 209 381 oscillator;
#X obj 201 315 osc~;
#X obj 122 322 phasor~;
#X text 50 308 carrier;
#X text 24 325 oscillator;
#X obj 122 432 outlet~;
#X obj 68 61 inlet;
#X obj 251 224 snapshot~;
#X obj 251 194 osc~ 0.204;
#X obj 336 232 metro 100;
#X msg 249 132 0.204;
#X obj 122 407 *~ 0.6;
#X connect 0 0 20 0;
#X connect 1 0 10 0;
#X connect 1 0 11 0;
#X connect 4 0 5 1;
#X connect 5 0 7 1;
#X connect 6 0 4 0;
#X connect 7 0 0 0;
#X connect 10 0 5 0;
#X connect 11 0 7 0;
#X connect 15 0 1 0;
#X connect 15 0 19 0;
#X connect 16 0 3 0;
#X connect 16 0 6 0;
#X connect 17 0 16 0;
#X connect 18 0 16 0;
#X connect 19 0 17 0;
#X connect 19 0 18 0;
#X connect 20 0 14 0;
#X restore 32 549 pd osc3;
#X obj 32 514 / 2;
#N canvas 194 22 450 300 noise 0;
#X obj 201 42 inlet freq;
#X obj 154 105 noise~;
#X obj 109 260 outlet~ left;
#X obj 221 263 outlet~ right;
#X floatatom 243 131 5 0 0 0 - - -, f 5;
#X obj 201 91 moses 10000;
#X obj 201 69 * 10;
#X obj 165 221 *~ 0.01;
#X obj 177 164 bp~ \$1 25;
#X connect 0 0 6 0;
#X connect 1 0 8 0;
#X connect 4 0 8 2;
#X connect 5 0 8 1;
#X connect 6 0 5 0;
#X connect 7 0 2 0;
#X connect 7 0 3 0;
#X connect 8 0 7 0;
#X restore 415 533 pd noise;
#X obj 32 491 r osc3;
#X obj 44 344 r phasor2;
#X obj 56 186 r osc1;
#X obj 232 342 r sine1;
#X obj 390 347 r sine2;
#X obj 238 185 r osc2;
#X obj 415 507 r noise;
#X obj 484 614 throw~ R;
#X obj 415 614 throw~ L;
#X obj 304 258 throw~ R;
#X obj 235 258 throw~ L;
#X obj 464 416 throw~ R;
#X obj 395 416 throw~ L;
#X obj 123 260 throw~ R;
#X obj 54 260 throw~ L;
#X obj 102 597 throw~ R;
#X obj 33 597 throw~ L;
#X obj 250 586 throw~ R;
#X obj 181 586 throw~ L;
#X obj 113 416 throw~ R;
#X obj 44 416 throw~ L;
#X obj 301 420 throw~ R;
#X obj 232 420 throw~ L;
#N canvas 275 118 691 589 phasor2 0;
#X obj 301 103 inlet frequency;
#X msg 162 135 220;
#X obj 246 172 * 2;
#X obj 415 455 outlet~ right;
#X obj 199 457 outlet~ left;
#X obj 181 213 phasor~;
#X obj 269 212 phasor~;
#X obj 344 212 phasor~;
#X obj 432 211 phasor~;
#X obj 338 173 + 0.5;
#X obj 429 176 + 0.8;
#X obj 253 364 *~ 0.05;
#X obj 406 365 *~ 0.05;
#X connect 0 0 2 0;
#X connect 0 0 5 0;
#X connect 0 0 9 0;
#X connect 0 0 10 0;
#X connect 1 0 2 0;
#X connect 1 0 5 0;
#X connect 1 0 9 0;
#X connect 2 0 6 0;
#X connect 2 0 10 0;
#X connect 5 0 11 0;
#X connect 6 0 11 0;
#X connect 7 0 12 0;
#X connect 8 0 12 0;
#X connect 9 0 7 0;
#X connect 10 0 8 0;
#X connect 11 0 4 0;
#X connect 12 0 3 0;
#X restore 889 323 pd phasor2;
#N canvas 623 95 728 500 sine1 0;
#X obj 165 128 osc~;
#X obj 285 18 inlet frequency;
#X obj 253 127 osc~;
#X obj 328 127 osc~;
#X obj 416 126 osc~;
#X msg 146 50 220;
#X obj 230 87 * 2;
#X obj 322 88 + 2;
#X obj 413 91 + 2;
#X obj 399 370 outlet~ right;
#X obj 183 372 outlet~ left;
#X obj 188 279 *~ 0.09;
#X obj 237 277 *~ 0.09;
#X obj 341 279 *~ 0.09;
#X obj 390 279 *~ 0.09;
#X connect 0 0 11 0;
#X connect 1 0 0 0;
#X connect 1 0 6 0;
#X connect 1 0 7 0;
#X connect 1 0 8 0;
#X connect 2 0 12 0;
#X connect 3 0 13 0;
#X connect 4 0 14 0;
#X connect 5 0 0 0;
#X connect 5 0 6 0;
#X connect 5 0 7 0;
#X connect 6 0 2 0;
#X connect 6 0 8 0;
#X connect 7 0 3 0;
#X connect 8 0 4 0;
#X connect 11 0 10 0;
#X connect 12 0 10 0;
#X connect 13 0 9 0;
#X connect 14 0 9 0;
#X restore 1058 341 pd sine1;
#N canvas 623 95 728 500 sine2 0;
#X obj 165 128 osc~;
#X obj 285 18 inlet frequency;
#X obj 253 127 osc~;
#X obj 328 127 osc~;
#X obj 416 126 osc~;
#X msg 146 50 220;
#X obj 230 87 * 2;
#X obj 322 88 + 2;
#X obj 413 91 + 2;
#X obj 399 370 outlet~ right;
#X obj 183 372 outlet~ left;
#X obj 175 280 *~ 0.09;
#X obj 237 278 *~ 0.09;
#X obj 330 280 *~ 0.09;
#X obj 390 280 *~ 0.09;
#X connect 0 0 11 0;
#X connect 1 0 0 0;
#X connect 1 0 6 0;
#X connect 1 0 7 0;
#X connect 1 0 8 0;
#X connect 2 0 12 0;
#X connect 3 0 13 0;
#X connect 4 0 14 0;
#X connect 5 0 0 0;
#X connect 5 0 6 0;
#X connect 5 0 7 0;
#X connect 6 0 2 0;
#X connect 6 0 8 0;
#X connect 7 0 3 0;
#X connect 8 0 4 0;
#X connect 11 0 10 0;
#X connect 12 0 10 0;
#X connect 13 0 9 0;
#X connect 14 0 9 0;
#X restore 1222 345 pd sine2;
#N canvas 699 23 657 670 osc1 0;
#X obj 122 381 cos~;
#X floatatom 70 192 4 0 0 0 - - -, f 4;
#X text 101 192 fundamental;
#X floatatom 315 276 4 0 500 0 - - -, f 4;
#X obj 251 318 line~;
#X obj 201 338 *~;
#X obj 251 295 pack 0 50;
#X obj 122 358 +~;
#X text 204 364 modulating;
#X text 209 381 oscillator;
#X obj 201 315 osc~;
#X obj 122 322 phasor~;
#X text 50 308 carrier;
#X text 24 325 oscillator;
#X obj 122 432 outlet~;
#X obj 68 61 inlet;
#X obj 251 224 snapshot~;
#X obj 251 194 osc~ 0.204;
#X obj 336 232 metro 100;
#X obj 122 407 *~ 0.1;
#X msg 249 132 0.1;
#X connect 0 0 19 0;
#X connect 1 0 10 0;
#X connect 1 0 11 0;
#X connect 4 0 5 1;
#X connect 5 0 7 1;
#X connect 6 0 4 0;
#X connect 7 0 0 0;
#X connect 10 0 5 0;
#X connect 11 0 7 0;
#X connect 15 0 1 0;
#X connect 15 0 20 0;
#X connect 16 0 3 0;
#X connect 16 0 6 0;
#X connect 17 0 16 0;
#X connect 18 0 16 0;
#X connect 19 0 14 0;
#X connect 20 0 17 0;
#X connect 20 0 18 0;
#X restore 1101 218 pd osc1;
#N canvas 699 23 657 670 osc2 0;
#X obj 122 381 cos~;
#X floatatom 70 192 4 0 0 0 - - -, f 4;
#X text 101 192 fundamental;
#X floatatom 315 276 4 0 500 0 - - -, f 4;
#X obj 251 318 line~;
#X obj 201 338 *~;
#X obj 251 295 pack 0 50;
#X obj 122 358 +~;
#X text 204 364 modulating;
#X text 209 381 oscillator;
#X obj 201 315 osc~;
#X obj 122 322 phasor~;
#X text 50 308 carrier;
#X text 24 325 oscillator;
#X obj 122 432 outlet~;
#X obj 68 61 inlet;
#X obj 251 224 snapshot~;
#X obj 251 194 osc~ 0.204;
#X obj 336 232 metro 100;
#X obj 122 406 *~ 0.09;
#X msg 249 132 0.1;
#X connect 0 0 19 0;
#X connect 1 0 10 0;
#X connect 1 0 11 0;
#X connect 4 0 5 1;
#X connect 5 0 7 1;
#X connect 6 0 4 0;
#X connect 7 0 0 0;
#X connect 10 0 5 0;
#X connect 11 0 7 0;
#X connect 15 0 1 0;
#X connect 15 0 20 0;
#X connect 16 0 3 0;
#X connect 16 0 6 0;
#X connect 17 0 16 0;
#X connect 18 0 16 0;
#X connect 19 0 14 0;
#X connect 20 0 17 0;
#X connect 20 0 18 0;
#X restore 1258 196 pd osc2;
#N canvas 699 23 657 670 osc3 0;
#X obj 122 381 cos~;
#X floatatom 70 192 4 0 0 0 - - -, f 4;
#X text 101 192 fundamental;
#X floatatom 315 276 4 0 500 0 - - -, f 4;
#X obj 251 318 line~;
#X obj 201 338 *~;
#X obj 251 295 pack 0 50;
#X obj 122 358 +~;
#X text 204 364 modulating;
#X text 209 381 oscillator;
#X obj 201 315 osc~;
#X obj 122 322 phasor~;
#X text 50 308 carrier;
#X text 24 325 oscillator;
#X obj 122 432 outlet~;
#X obj 68 61 inlet;
#X obj 251 224 snapshot~;
#X obj 251 194 osc~ 0.204;
#X obj 336 232 metro 100;
#X msg 249 132 0.204;
#X obj 122 407 *~ 0.6;
#X connect 0 0 20 0;
#X connect 1 0 10 0;
#X connect 1 0 11 0;
#X connect 4 0 5 1;
#X connect 5 0 7 1;
#X connect 6 0 4 0;
#X connect 7 0 0 0;
#X connect 10 0 5 0;
#X connect 11 0 7 0;
#X connect 15 0 1 0;
#X connect 15 0 19 0;
#X connect 16 0 3 0;
#X connect 16 0 6 0;
#X connect 17 0 16 0;
#X connect 18 0 16 0;
#X connect 19 0 17 0;
#X connect 19 0 18 0;
#X connect 20 0 14 0;
#X restore 1024 565 pd osc3;
#X obj 1024 541 / 2;
#N canvas 703 22 450 300 noise 0;
#X obj 201 42 inlet freq;
#X obj 154 105 noise~;
#X obj 109 260 outlet~ left;
#X obj 221 263 outlet~ right;
#X floatatom 243 131 5 0 0 0 - - -, f 5;
#X obj 201 91 moses 10000;
#X obj 201 69 * 10;
#X obj 165 221 *~ 0.01;
#X obj 177 164 bp~ \$1 25;
#X connect 0 0 6 0;
#X connect 1 0 8 0;
#X connect 4 0 8 2;
#X connect 5 0 8 1;
#X connect 6 0 5 0;
#X connect 7 0 2 0;
#X connect 7 0 3 0;
#X connect 8 0 7 0;
#X restore 846 527 pd noise;
#X obj 1024 514 r osc3b;
#X obj 1101 195 r osc1b;
#X obj 1258 169 r osc2b;
#X obj 1222 320 r sine2b;
#X obj 1058 315 r sine1b;
#X obj 889 299 r phasor2b;
#X obj 846 502 r noiseb;
#X obj 1024 613 throw~ Lb;
#X obj 1094 613 throw~ Rb;
#X obj 1189 565 throw~ Lb;
#X obj 1264 565 throw~ Rb;
#X obj 1101 265 throw~ Lb;
#X obj 1168 265 throw~ Rb;
#X obj 1258 242 throw~ Lb;
#X obj 1326 242 throw~ Rb;
#X obj 889 370 throw~ Lb;
#X obj 958 370 throw~ Rb;
#X obj 1058 389 throw~ Lb;
#X obj 1127 389 throw~ Rb;
#X obj 1222 391 throw~ Lb;
#X obj 1291 391 throw~ Rb;
#X obj 846 608 throw~ Lb;
#X obj 915 608 throw~ Rb;
#X text 176 38 A synths;
#X text 1081 48 B synths;
#N canvas 623 95 728 500 sine4 0;
#X obj 165 128 osc~;
#X obj 285 18 inlet frequency;
#X obj 253 127 osc~;
#X obj 328 127 osc~;
#X obj 416 126 osc~;
#X msg 146 50 220;
#X obj 230 87 * 2;
#X obj 322 88 + 2;
#X obj 413 91 + 2;
#X obj 399 370 outlet~ right;
#X obj 183 372 outlet~ left;
#X obj 164 279 *~ 0.09;
#X obj 253 279 *~ 0.09;
#X obj 328 277 *~ 0.09;
#X obj 417 278 *~ 0.09;
#X connect 0 0 11 0;
#X connect 1 0 0 0;
#X connect 1 0 6 0;
#X connect 1 0 7 0;
#X connect 1 0 8 0;
#X connect 2 0 12 0;
#X connect 3 0 13 0;
#X connect 4 0 14 0;
#X connect 5 0 0 0;
#X connect 5 0 6 0;
#X connect 5 0 7 0;
#X connect 6 0 2 0;
#X connect 6 0 8 0;
#X connect 7 0 3 0;
#X connect 8 0 4 0;
#X connect 11 0 10 0;
#X connect 12 0 10 0;
#X connect 13 0 9 0;
#X connect 14 0 9 0;
#X restore 182 534 pd sine4;
#X obj 181 506 r sine4;
#N canvas 623 95 728 500 sine4 0;
#X obj 165 128 osc~;
#X obj 285 18 inlet frequency;
#X obj 253 127 osc~;
#X obj 328 127 osc~;
#X obj 416 126 osc~;
#X msg 146 50 220;
#X obj 230 87 * 2;
#X obj 322 88 + 2;
#X obj 413 91 + 2;
#X obj 399 370 outlet~ right;
#X obj 183 372 outlet~ left;
#X obj 164 279 *~ 0.09;
#X obj 253 279 *~ 0.09;
#X obj 328 277 *~ 0.09;
#X obj 417 278 *~ 0.09;
#X connect 0 0 11 0;
#X connect 1 0 0 0;
#X connect 1 0 6 0;
#X connect 1 0 7 0;
#X connect 1 0 8 0;
#X connect 2 0 12 0;
#X connect 3 0 13 0;
#X connect 4 0 14 0;
#X connect 5 0 0 0;
#X connect 5 0 6 0;
#X connect 5 0 7 0;
#X connect 6 0 2 0;
#X connect 6 0 8 0;
#X connect 7 0 3 0;
#X connect 8 0 4 0;
#X connect 11 0 10 0;
#X connect 12 0 10 0;
#X connect 13 0 9 0;
#X connect 14 0 9 0;
#X restore 1189 516 pd sine4;
#X obj 1189 492 r sine4b;
#X text 440 28 Most of these synths are slightly modified versions
of Andy Farnell's tutorial synths on his website: http://obiwannabe.co.uk/html/music/6SS/six-simple-synthesisers.html
so all credit should go to him.;
#X connect 0 0 28 0;
#X connect 0 1 27 0;
#X connect 1 0 30 0;
#X connect 1 1 29 0;
#X connect 2 0 20 0;
#X connect 2 1 19 0;
#X connect 3 0 22 0;
#X connect 3 0 21 0;
#X connect 4 0 18 0;
#X connect 4 0 17 0;
#X connect 5 0 24 0;
#X connect 5 0 23 0;
#X connect 6 0 5 0;
#X connect 7 0 16 0;
#X connect 7 1 15 0;
#X connect 8 0 6 0;
#X connect 9 0 0 0;
#X connect 10 0 3 0;
#X connect 11 0 1 0;
#X connect 12 0 2 0;
#X connect 13 0 4 0;
#X connect 14 0 7 0;
#X connect 31 0 54 0;
#X connect 31 1 55 0;
#X connect 32 0 56 0;
#X connect 32 1 57 0;
#X connect 33 0 58 0;
#X connect 33 1 59 0;
#X connect 34 0 50 0;
#X connect 34 0 51 0;
#X connect 35 0 52 0;
#X connect 35 0 53 0;
#X connect 36 0 46 0;
#X connect 36 0 47 0;
#X connect 37 0 36 0;
#X connect 38 0 60 0;
#X connect 38 1 61 0;
#X connect 39 0 37 0;
#X connect 40 0 34 0;
#X connect 41 0 35 0;
#X connect 42 0 33 0;
#X connect 43 0 32 0;
#X connect 44 0 31 0;
#X connect 45 0 38 0;
#X connect 64 0 26 0;
#X connect 64 1 25 0;
#X connect 65 0 64 0;
#X connect 66 0 48 0;
#X connect 66 1 49 0;
#X connect 67 0 66 0;
#X restore 23 181 pd synths;
#X obj 515 427 *~ 0.25;
#X obj 570 426 *~ 0.25;
#X obj 675 433 *~ 0.25;
#X obj 735 433 *~ 0.25;
#N canvas 88 38 951 795 stringsynth 0;
#X obj 144 461 osc~;
#X obj 93 461 osc~;
#X obj 42 461 osc~;
#X obj 43 485 *~ 0.3;
#X obj 93 485 *~ 0.3;
#X obj 143 485 *~ 0.3;
#X obj 141 509 tgl 15 0 empty empty empty 0 -6 0 8 -262144 -1 -1 0
1;
#X text 269 43 Mixing 3 cosines;
#X text 462 43 Clipping the sum of three;
#X obj 101 572 +~;
#X obj 101 594 clip~ -1 1;
#X obj 101 616 +~;
#X obj 101 643 cos~;
#X obj 129 571 * -1;
#X msg 604 182 97.999;
#X msg 605 230 146.832;
#X obj 45 318 route f;
#X floatatom 102 341 5 0 0 0 - - -, f 5;
#X obj 520 440 osc~;
#X obj 469 440 osc~;
#X obj 418 440 osc~;
#X obj 419 464 *~ 0.3;
#X obj 469 464 *~ 0.3;
#X obj 519 464 *~ 0.3;
#X obj 492 532 tgl 15 0 empty empty empty 0 -6 0 8 -262144 -1 -1 0
1;
#X obj 477 551 +~;
#X obj 477 573 clip~ -1 1;
#X obj 477 595 +~;
#X obj 477 622 cos~;
#X obj 505 550 * -1;
#X obj 473 368 route f;
#X obj 604 158 r G;
#X obj 605 207 r D;
#X obj 603 247 r A;
#X obj 602 295 r E;
#X obj 97 706 throw~ stringsynthL;
#X obj 473 683 throw~ stringsynthR;
#X msg 603 271 220;
#X msg 602 321 329.628;
#X obj 97 675 *~ 0.08;
#X obj 473 654 *~ 0.08;
#X msg 174 539 0.866;
#X msg 553 521 0.937;
#X obj 261 382 loadbang;
#X obj 93 439 + 1;
#X obj 144 439 - 1;
#X obj 469 418 + 0.5;
#X obj 520 418 - 0.5;
#X msg 193 634 0;
#X obj 193 611 r kill;
#X msg 284 623 0.08;
#X text 444 99 This is a slightly modified version of Andy Farnell's
synth tutorials on his website: http://obiwannabe.co.uk/html/music/6SS/six-simple-synthesisers.html
;
#X connect 0 0 5 0;
#X connect 1 0 4 0;
#X connect 2 0 3 0;
#X connect 3 0 9 0;
#X connect 4 0 9 0;
#X connect 5 0 9 0;
#X connect 6 0 9 1;
#X connect 9 0 10 0;
#X connect 10 0 11 0;
#X connect 11 0 12 0;
#X connect 12 0 39 0;
#X connect 13 0 10 1;
#X connect 14 0 16 0;
#X connect 14 0 30 0;
#X connect 15 0 16 0;
#X connect 15 0 30 0;
#X connect 16 1 17 0;
#X connect 16 1 2 0;
#X connect 16 1 44 0;
#X connect 16 1 45 0;
#X connect 18 0 23 0;
#X connect 19 0 22 0;
#X connect 20 0 21 0;
#X connect 21 0 25 0;
#X connect 22 0 25 0;
#X connect 23 0 25 0;
#X connect 24 0 25 1;
#X connect 25 0 26 0;
#X connect 26 0 27 0;
#X connect 27 0 28 0;
#X connect 28 0 40 0;
#X connect 29 0 26 1;
#X connect 30 1 20 0;
#X connect 30 1 46 0;
#X connect 30 1 47 0;
#X connect 31 0 14 0;
#X connect 31 0 50 0;
#X connect 32 0 15 0;
#X connect 32 0 50 0;
#X connect 33 0 37 0;
#X connect 33 0 50 0;
#X connect 34 0 38 0;
#X connect 34 0 50 0;
#X connect 37 0 16 0;
#X connect 37 0 30 0;
#X connect 38 0 16 0;
#X connect 38 0 30 0;
#X connect 39 0 35 0;
#X connect 40 0 36 0;
#X connect 41 0 13 0;
#X connect 41 0 10 2;
#X connect 42 0 29 0;
#X connect 42 0 26 2;
#X connect 43 0 41 0;
#X connect 43 0 42 0;
#X connect 44 0 1 0;
#X connect 45 0 0 0;
#X connect 46 0 19 0;
#X connect 47 0 18 0;
#X connect 48 0 39 1;
#X connect 48 0 40 1;
#X connect 49 0 48 0;
#X connect 50 0 39 1;
#X connect 50 0 40 1;
#X restore 23 207 pd stringsynth;
#X obj 615 468 catch~ stringsynthL;
#X obj 695 522 catch~ stringsynthR;
#X obj 612 212 bng 50 500 50 0 D D empty 17 7 0 10 -1 -260097 -1;
#X obj 549 212 bng 50 500 50 0 G G empty 17 7 0 10 -1 -4034 -1;
#X obj 733 212 bng 50 500 50 0 E E empty 17 7 0 10 -1 -4032 -1;
#X obj 672 212 bng 50 500 50 0 A A empty 17 7 0 10 -1 -257985 -1;
#X obj 615 496 *~ 0.25;
#X obj 695 548 *~ 0.25;
#X text 566 183 G;
#X text 630 182 D;
#X text 690 181 A;
#X text 748 181 E;
#N canvas 0 22 1381 796 notecalc 0;
#X text -1582 -310 G;
#X msg -1492 -310 39 51 58 67 74 79 87 91;
#X msg -1706 -287 48 60 67 72 76 79 84 91;
#X msg -1467 -278 44 51 56 60 67 68 75 80;
#X msg -1676 -262 41 53 60 67 69 72 77 84;
#X msg -1445 -245 38 50 55 57 62 67 69 74;
#X msg -1652 -236 46 53 58 62 65 67 74 79;
#X msg -1733 -312 43 55 62 67 71 74 79 86;
#X msg -1428 -214 43 55 62 67 71 74 79 86;
#X text -1558 -286 C;
#X text -1530 -260 F;
#X text -1506 -235 Bb;
#X text -1515 -315 Eb;
#X text -1489 -285 Ab;
#X text -1445 -214 G;
#X obj -1706 109 s osc3;
#X obj -1586 108 s phasor2;
#X obj -1520 107 s osc1;
#X obj -1469 108 s sine1;
#X obj -1417 108 s osc2;
#X obj -1371 108 s sine2;
#X obj -1320 106 s noise;
#X obj -1202 -109 unpack f f f f f f f f;
#X obj -1653 109 s sine4;
#X obj -1202 58 pack f f f f f f f f;
#X msg -1144 82 set \$1 \$2 \$3 \$4 \$5 \$6 \$7 \$8;
#X obj -1675 32 mtof;
#X obj -1638 32 mtof;
#X obj -1594 32 mtof;
#X obj -1557 32 mtof;
#X obj -1514 34 mtof;
#X obj -1477 34 mtof;
#X obj -1440 34 mtof;
#X obj -1404 34 mtof;
#X text -1462 -245 D;
#X msg -1630 -207 41 53 60 67 69 72 77 84;
#X text -1482 -204 F;
#X text -1704 -119 This patch is simply to transpose midi notes and
put them into message boxes for the chords. There is probably a better
way to do this \, but I found this fairly quick.;
#X msg -863 -16 \; line1 0.25 100;
#X msg -864 -60 \; line2 0.25 100;
#X msg -746 -63 \; line2 0 100;
#X msg -745 -19 \; line1 0 100;
#X obj -1236 -28 + 7;
#X obj -1209 -28 + 7;
#X obj -1182 -28 + 7;
#X obj -1155 -28 + 7;
#X obj -1130 -28 + 7;
#X obj -1103 -29 + 7;
#X obj -1076 -28 + 7;
#X obj -1049 -28 + 7;
#X msg -1168 -307 110 220 277.183 329.628 440 554.365 659.255 880;
#X text -877 -307 A root;
#X msg -1170 -275 110 164.814 220 261.626 293.665 329.628 440 587.33
;
#X text -862 -275 A open;
#X msg -1175 -239 146.832 220 261.626 293.665 329.628 391.995 440 587.33
;
#X text -844 -239 Dm 7;
#X msg -1179 -202 97.9989 146.832 195.998 220 293.665 391.995 440 587.33
;
#X text -846 -199 G9;
#X msg -790 -307 92.4986 184.997 277.183 329.628 369.994 440 554.365
659.255;
#X text -428 -307 F#m7;
#X msg -795 -278 123.471 184.997 246.942 293.665 329.628 369.994 440
554.365;
#X text -437 -278 Bm7;
#X msg -798 -250 87.3071 130.813 174.614 220 261.626 349.228 440 659.255
;
#X text -461 -249 F7;
#X msg -770 -208 82.4069 164.814 220 293.665 329.628 391.995 440 659.255
;
#X text -432 -206 E open;
#X connect 1 0 22 0;
#X connect 2 0 22 0;
#X connect 3 0 22 0;
#X connect 4 0 22 0;
#X connect 5 0 22 0;
#X connect 6 0 22 0;
#X connect 7 0 22 0;
#X connect 8 0 22 0;
#X connect 22 0 26 0;
#X connect 22 0 42 0;
#X connect 22 1 27 0;
#X connect 22 1 43 0;
#X connect 22 2 28 0;
#X connect 22 2 44 0;
#X connect 22 3 29 0;
#X connect 22 3 45 0;
#X connect 22 4 30 0;
#X connect 22 4 46 0;
#X connect 22 5 31 0;
#X connect 22 5 47 0;
#X connect 22 6 32 0;
#X connect 22 6 48 0;
#X connect 22 7 33 0;
#X connect 22 7 49 0;
#X connect 24 0 25 0;
#X connect 26 0 15 0;
#X connect 27 0 23 0;
#X connect 28 0 16 0;
#X connect 29 0 17 0;
#X connect 30 0 18 0;
#X connect 31 0 19 0;
#X connect 32 0 20 0;
#X connect 33 0 21 0;
#X connect 35 0 22 0;
#X connect 42 0 24 0;
#X connect 43 0 24 1;
#X connect 44 0 24 2;
#X connect 45 0 24 3;
#X connect 46 0 24 4;
#X connect 47 0 24 5;
#X connect 48 0 24 6;
#X connect 49 0 24 7;
#X connect 50 0 22 0;
#X connect 52 0 22 0;
#X connect 54 0 22 0;
#X connect 56 0 22 0;
#X connect 58 0 22 0;
#X connect 60 0 22 0;
#X connect 62 0 22 0;
#X connect 64 0 22 0;
#X restore 24 233 pd notecalc;
#N canvas 27 201 1383 829 newplaybackD 0;
#X msg -2359 -252 146.832 220 293.665 369.994 440 587.33 739.989 880
;
#X text -2046 -252 D root;
#X msg -2359 -223 130.813 195.998 261.626 293.665 391.995 523.251 659.255
783.991;
#X text -2019 -217 C 9th;
#X msg -2359 -181 87.3071 174.614 261.626 293.665 349.228 440 523.251
587.33;
#X text -2003 -180 F 6th;
#X msg -2359 -152 97.9989 146.832 195.998 233.082 293.665 391.995 466.164
587.33;
#X msg -1977 -256 155.563 233.082 311.127 391.995 466.164 587.33 622.254
783.991;
#X text -1642 -253 Eb 7th;
#X msg -1957 -213 110 220 261.626 293.665 329.628 440 587.33 659.255
;
#X text -1647 -212 Am 6th;
#X text -2023 -142 Gm;
#X msg -1950 -180 116.541 233.082 293.665 349.228 440 587.33 698.456
880;
#X text -1619 -179 Bb 7th;
#X msg -1964 -145 73.4162 146.832 220 293.665 440 523.251 587.33 880
;
#X text -1656 -144 D open;
#X obj -1930 271 s line1;
#X obj -1844 271 s line2;
#X msg -1987 178 0 1000;
#X msg -1796 177 0 1000;
#X msg -2013 230 0.25 1000;
#X msg -1801 229 0.25 1000;
#X text -2018 177 off;
#X text -2038 230 on;
#X text -1748 176 off;
#X text -1738 228 on;
#X obj -1522 -431 tgl 15 0 empty empty empty 17 7 0 10 -262144 -1 -1
0 1;
#X obj -2401 79 s osc3;
#X obj -2281 78 s phasor2;
#X obj -2215 77 s osc1;
#X obj -2164 78 s sine1;
#X obj -2112 78 s osc2;
#X obj -2066 78 s sine2;
#X obj -2015 76 s noise;
#X obj -2271 25 unpack f f f f f f f f;
#X obj -2348 79 s sine4;
#X obj -1821 74 s osc3b;
#X obj -1701 73 s phasor2b;
#X obj -1635 72 s osc1b;
#X obj -1584 73 s sine1b;
#X obj -1527 73 s osc2b;
#X obj -1475 73 s sine2b;
#X obj -1413 74 s noiseb;
#X obj -1665 17 unpack f f f f f f f f;
#X obj -1768 74 s sine4b;
#X obj -2024 -342 + 1;
#X floatatom -1995 -320 5 0 0 0 - - -, f 5;
#X obj -2194 -311 select 1 2 3 4;
#X obj -2024 -364 random 4;
#X floatatom -1908 -321 5 0 0 0 - - -, f 5;
#X obj -1937 -365 random 4;
#X obj -1937 -344 + 5;
#X obj -1530 -360 bng 15 250 50 0 empty empty empty 17 7 0 10 -262144
-1 -1;
#X obj -1441 -353 bng 15 250 50 0 empty empty empty 17 7 0 10 -262144
-1 -1;
#X obj -1936 -296 select 5 6 7 8;
#X msg -1450 -442 0;
#X obj -1475 -417 bng 15 250 50 0 empty empty empty 17 7 0 10 -262144
-1 -1;
#X obj -1334 -393 bng 15 250 50 0 empty empty empty 17 7 0 10 -262144
-1 -1;
#X obj -1514 -384 metro 12000;
#X obj -1425 -377 metro 12000;
#X obj -1428 -413 delay 6000;
#X obj -1451 -463 r kill;
#X obj -1906 134 r kill;
#X text -1448 -284 There are 8 chords to choose from. This subpatch
"randomly" chooses between them. There are two players \, to be able
to cross fade between them;
#X text -1446 -227 The metro bangs a chord into each player every 12
seconds \, so the chords change every 6 seconds.;
#X text -1447 -175 The reason for static movement \, rather that snappy
rhymic movement \, is to encourage rich tone.;
#X msg -1285 -435 stop;
#X obj -1522 -461 r D;
#X obj -1722 -458 r G;
#X obj -1692 -458 r A;
#X obj -1665 -458 r E;
#X text -1973 -437 This makes sure the other strings' chords are turned
off;
#X connect 0 0 34 0;
#X connect 2 0 34 0;
#X connect 4 0 34 0;
#X connect 6 0 34 0;
#X connect 7 0 43 0;
#X connect 9 0 43 0;
#X connect 12 0 43 0;
#X connect 14 0 43 0;
#X connect 18 0 16 0;
#X connect 19 0 17 0;
#X connect 20 0 16 0;
#X connect 21 0 17 0;
#X connect 26 0 56 0;
#X connect 26 0 58 0;
#X connect 34 0 27 0;
#X connect 34 1 35 0;
#X connect 34 2 28 0;
#X connect 34 3 29 0;
#X connect 34 4 30 0;
#X connect 34 5 31 0;
#X connect 34 6 32 0;
#X connect 34 7 33 0;
#X connect 43 0 36 0;
#X connect 43 1 44 0;
#X connect 43 2 37 0;
#X connect 43 3 38 0;
#X connect 43 4 39 0;
#X connect 43 5 40 0;
#X connect 43 6 41 0;
#X connect 43 7 42 0;
#X connect 45 0 46 0;
#X connect 45 0 20 0;
#X connect 45 0 47 0;
#X connect 45 0 19 0;
#X connect 47 0 0 0;
#X connect 47 1 2 0;
#X connect 47 2 4 0;
#X connect 47 3 6 0;
#X connect 48 0 45 0;
#X connect 50 0 51 0;
#X connect 51 0 49 0;
#X connect 51 0 54 0;
#X connect 51 0 21 0;
#X connect 51 0 18 0;
#X connect 54 0 7 0;
#X connect 54 1 9 0;
#X connect 54 2 12 0;
#X connect 54 3 14 0;
#X connect 55 0 59 0;
#X connect 55 0 26 0;
#X connect 56 0 60 0;
#X connect 58 0 52 0;
#X connect 58 0 48 0;
#X connect 59 0 53 0;
#X connect 59 0 50 0;
#X connect 60 0 57 0;
#X connect 60 0 59 0;
#X connect 61 0 55 0;
#X connect 61 0 66 0;
#X connect 62 0 19 0;
#X connect 62 0 18 0;
#X connect 66 0 60 0;
#X connect 67 0 26 0;
#X connect 68 0 55 0;
#X connect 68 0 66 0;
#X connect 69 0 55 0;
#X connect 69 0 66 0;
#X connect 70 0 55 0;
#X connect 70 0 66 0;
#X restore 24 259 pd newplaybackD;
#N canvas 0 22 1342 788 newplaybackG 0;
#X obj -1930 271 s line1;
#X obj -1844 271 s line2;
#X msg -1987 178 0 1000;
#X msg -1796 177 0 1000;
#X msg -2013 230 0.25 1000;
#X msg -1801 229 0.25 1000;
#X text -2018 177 off;
#X text -2038 230 on;
#X text -1748 176 off;
#X text -1738 228 on;
#X obj -1522 -431 tgl 15 0 empty empty empty 17 7 0 10 -262144 -1 -1
0 1;
#X obj -2401 79 s osc3;
#X obj -2281 78 s phasor2;
#X obj -2215 77 s osc1;
#X obj -2164 78 s sine1;
#X obj -2112 78 s osc2;
#X obj -2066 78 s sine2;
#X obj -2015 76 s noise;
#X obj -2271 25 unpack f f f f f f f f;
#X obj -2348 79 s sine4;
#X obj -1821 74 s osc3b;
#X obj -1701 73 s phasor2b;
#X obj -1635 72 s osc1b;
#X obj -1584 73 s sine1b;
#X obj -1527 73 s osc2b;
#X obj -1475 73 s sine2b;
#X obj -1413 74 s noiseb;
#X obj -1665 17 unpack f f f f f f f f;
#X obj -1768 74 s sine4b;
#X obj -2024 -342 + 1;
#X floatatom -1995 -320 5 0 0 0 - - -, f 5;
#X obj -2194 -311 select 1 2 3 4;
#X obj -2024 -364 random 4;
#X floatatom -1908 -321 5 0 0 0 - - -, f 5;
#X obj -1937 -365 random 4;
#X obj -1937 -344 + 5;
#X obj -1530 -360 bng 15 250 50 0 empty empty empty 17 7 0 10 -262144
-1 -1;
#X obj -1441 -353 bng 15 250 50 0 empty empty empty 17 7 0 10 -262144
-1 -1;
#X obj -1936 -296 select 5 6 7 8;
#X msg -1450 -442 0;
#X obj -1475 -417 bng 15 250 50 0 empty empty empty 17 7 0 10 -262144
-1 -1;
#X obj -1334 -393 bng 15 250 50 0 empty empty empty 17 7 0 10 -262144
-1 -1;
#X obj -1514 -384 metro 12000;
#X obj -1425 -377 metro 12000;
#X obj -1428 -413 delay 6000;
#X obj -1451 -463 r kill;
#X obj -1598 157 r kill;
#X text -1448 -284 There are 8 chords to choose from. This subpatch
"randomly" chooses between them. There are two players \, to be able
to cross fade between them;
#X text -1446 -227 The metro bangs a chord into each player every 12
seconds \, so the chords change every 6 seconds.;
#X text -1447 -175 The reason for static movement \, rather that snappy
rhymic movement \, is to encourage rich tone.;
#X msg -1285 -435 stop;
#X obj -1522 -453 r G;
#X text -1487 -220 Ab;
#X text -2038 -182 F;
#X text -1488 -188 D;
#X text -2063 -146 Bb;
#X msg -2392 -274 97.9989 195.998 293.665 391.995 493.883 587.33 783.991
1174.66;
#X text -2057 -266 G;
#X msg -2392 -228 130.813 261.626 391.995 523.251 659.255 783.991 1046.5
1567.98;
#X text -2059 -220 C;
#X msg -2394 -182 87.3071 174.614 261.626 391.995 440 523.251 698.456
1046.5;
#X msg -2394 -154 116.541 174.614 233.082 293.665 349.228 391.995 587.33
783.991;
#X msg -1824 -264 77.7817 155.563 233.082 391.995 587.33 783.991 1244.51
1567.98;
#X text -1488 -255 Eb;
#X msg -1824 -229 103.826 155.563 207.652 261.626 391.995 415.305 622.254
830.609;
#X msg -1824 -191 73.4162 146.832 195.998 220 293.665 391.995 440 587.33
;
#X msg -1823 -162 97.9989 195.998 293.665 391.995 493.883 587.33 783.991
1174.66;
#X text -1491 -156 G;
#X obj -1801 -457 r A;
#X obj -1774 -457 r E;
#X obj -1831 -457 r D;
#X text -1973 -437 This makes sure the other strings' chords are turned
off;
#X connect 2 0 0 0;
#X connect 3 0 1 0;
#X connect 4 0 0 0;
#X connect 5 0 1 0;
#X connect 10 0 40 0;
#X connect 10 0 42 0;
#X connect 18 0 11 0;
#X connect 18 1 19 0;
#X connect 18 2 12 0;
#X connect 18 3 13 0;
#X connect 18 4 14 0;
#X connect 18 5 15 0;
#X connect 18 6 16 0;
#X connect 18 7 17 0;
#X connect 27 0 20 0;
#X connect 27 1 28 0;
#X connect 27 2 21 0;
#X connect 27 3 22 0;
#X connect 27 4 23 0;
#X connect 27 5 24 0;
#X connect 27 6 25 0;
#X connect 27 7 26 0;
#X connect 29 0 30 0;
#X connect 29 0 4 0;
#X connect 29 0 31 0;
#X connect 29 0 3 0;
#X connect 31 0 56 0;
#X connect 31 1 58 0;
#X connect 31 2 60 0;
#X connect 31 3 61 0;
#X connect 32 0 29 0;
#X connect 34 0 35 0;
#X connect 35 0 33 0;
#X connect 35 0 38 0;
#X connect 35 0 5 0;
#X connect 35 0 2 0;
#X connect 38 0 62 0;
#X connect 38 1 64 0;
#X connect 38 2 65 0;
#X connect 38 3 66 0;
#X connect 39 0 43 0;
#X connect 39 0 10 0;
#X connect 40 0 44 0;
#X connect 42 0 36 0;
#X connect 42 0 32 0;
#X connect 43 0 37 0;
#X connect 43 0 34 0;
#X connect 44 0 41 0;
#X connect 44 0 43 0;
#X connect 45 0 39 0;
#X connect 45 0 50 0;
#X connect 46 0 3 0;
#X connect 46 0 2 0;
#X connect 50 0 44 0;
#X connect 51 0 10 0;
#X connect 56 0 18 0;
#X connect 58 0 18 0;
#X connect 60 0 18 0;
#X connect 61 0 18 0;
#X connect 62 0 27 0;
#X connect 64 0 27 0;
#X connect 65 0 27 0;
#X connect 66 0 27 0;
#X connect 68 0 39 0;
#X connect 68 0 50 0;
#X connect 69 0 39 0;
#X connect 69 0 50 0;
#X connect 70 0 39 0;
#X connect 70 0 50 0;
#X restore 24 280 pd newplaybackG;
#N canvas 0 22 1342 788 newplaybackA 0;
#X obj -1930 271 s line1;
#X obj -1844 271 s line2;
#X msg -1987 178 0 1000;
#X msg -1796 177 0 1000;
#X msg -2013 230 0.25 1000;
#X msg -1801 229 0.25 1000;
#X text -2018 177 off;
#X text -2038 230 on;
#X text -1748 176 off;
#X text -1738 228 on;
#X obj -1522 -431 tgl 15 0 empty empty empty 17 7 0 10 -262144 -1 -1
0 1;
#X obj -2401 79 s osc3;
#X obj -2281 78 s phasor2;
#X obj -2215 77 s osc1;
#X obj -2164 78 s sine1;
#X obj -2112 78 s osc2;
#X obj -2066 78 s sine2;
#X obj -2015 76 s noise;
#X obj -2271 25 unpack f f f f f f f f;
#X obj -2348 79 s sine4;
#X obj -1821 74 s osc3b;
#X obj -1701 73 s phasor2b;
#X obj -1635 72 s osc1b;
#X obj -1584 73 s sine1b;
#X obj -1527 73 s osc2b;
#X obj -1475 73 s sine2b;
#X obj -1413 74 s noiseb;
#X obj -1665 17 unpack f f f f f f f f;
#X obj -1768 74 s sine4b;
#X obj -2024 -342 + 1;
#X floatatom -1995 -320 5 0 0 0 - - -, f 5;
#X obj -2194 -311 select 1 2 3 4;
#X obj -2024 -364 random 4;
#X floatatom -1908 -321 5 0 0 0 - - -, f 5;
#X obj -1937 -365 random 4;
#X obj -1937 -344 + 5;
#X obj -1530 -360 bng 15 250 50 0 empty empty empty 17 7 0 10 -262144
-1 -1;
#X obj -1441 -353 bng 15 250 50 0 empty empty empty 17 7 0 10 -262144
-1 -1;
#X obj -1936 -296 select 5 6 7 8;
#X msg -1450 -442 0;
#X obj -1475 -417 bng 15 250 50 0 empty empty empty 17 7 0 10 -262144
-1 -1;
#X obj -1334 -393 bng 15 250 50 0 empty empty empty 17 7 0 10 -262144
-1 -1;
#X obj -1514 -384 metro 12000;
#X obj -1425 -377 metro 12000;
#X obj -1428 -413 delay 6000;
#X obj -1451 -463 r kill;
#X obj -1598 157 r kill;
#X text -1448 -284 There are 8 chords to choose from. This subpatch
"randomly" chooses between them. There are two players \, to be able
to cross fade between them;
#X text -1446 -227 The metro bangs a chord into each player every 12
seconds \, so the chords change every 6 seconds.;
#X text -1447 -175 The reason for static movement \, rather that snappy
rhymic movement \, is to encourage rich tone.;
#X msg -1285 -435 stop;
#X obj -1774 -457 r E;
#X obj -1831 -457 r D;
#X obj -1522 -453 r A;
#X obj -1801 -457 r G;
#X msg -2302 -213 110 220 277.183 329.628 440 554.365 659.255 880;
#X text -2011 -213 A root;
#X msg -2304 -181 110 164.814 220 261.626 293.665 329.628 440 587.33
;
#X text -1996 -181 A open;
#X msg -2309 -145 146.832 220 261.626 293.665 329.628 391.995 440 587.33
;
#X text -1978 -145 Dm 7;
#X msg -1916 -149 97.9989 146.832 195.998 220 293.665 391.995 440 587.33
;
#X text -1583 -147 G9;
#X msg -1924 -213 92.4986 184.997 277.183 329.628 369.994 440 554.365
659.255;
#X text -1562 -213 F#m7;
#X msg -1929 -184 123.471 184.997 246.942 293.665 329.628 369.994 440
554.365;
#X text -1571 -184 Bm7;
#X msg -2329 -116 87.3071 130.813 174.614 220 261.626 349.228 440 659.255
;
#X text -1992 -115 F7;
#X msg -1904 -114 82.4069 164.814 220 293.665 329.628 391.995 440 659.255
;
#X text -1566 -112 E open;
#X text -1973 -437 This makes sure the other strings' chords are turned
off;
#X connect 2 0 0 0;
#X connect 3 0 1 0;
#X connect 4 0 0 0;
#X connect 5 0 1 0;
#X connect 10 0 40 0;
#X connect 10 0 42 0;
#X connect 18 0 11 0;
#X connect 18 1 19 0;
#X connect 18 2 12 0;
#X connect 18 3 13 0;
#X connect 18 4 14 0;
#X connect 18 5 15 0;
#X connect 18 6 16 0;
#X connect 18 7 17 0;
#X connect 27 0 20 0;
#X connect 27 1 28 0;
#X connect 27 2 21 0;
#X connect 27 3 22 0;
#X connect 27 4 23 0;
#X connect 27 5 24 0;
#X connect 27 6 25 0;
#X connect 27 7 26 0;
#X connect 29 0 30 0;
#X connect 29 0 4 0;
#X connect 29 0 31 0;
#X connect 29 0 3 0;
#X connect 31 0 55 0;
#X connect 31 1 57 0;
#X connect 31 2 59 0;
#X connect 31 3 67 0;
#X connect 32 0 29 0;
#X connect 34 0 35 0;
#X connect 35 0 33 0;
#X connect 35 0 38 0;
#X connect 35 0 5 0;
#X connect 35 0 2 0;
#X connect 38 0 63 0;
#X connect 38 1 65 0;
#X connect 38 2 61 0;
#X connect 38 3 69 0;
#X connect 39 0 43 0;
#X connect 39 0 10 0;
#X connect 40 0 44 0;
#X connect 42 0 36 0;
#X connect 42 0 32 0;
#X connect 43 0 37 0;
#X connect 43 0 34 0;
#X connect 44 0 41 0;
#X connect 44 0 43 0;
#X connect 45 0 39 0;
#X connect 45 0 50 0;
#X connect 46 0 3 0;
#X connect 46 0 2 0;
#X connect 50 0 44 0;
#X connect 51 0 39 0;
#X connect 51 0 50 0;
#X connect 52 0 39 0;
#X connect 52 0 50 0;
#X connect 53 0 10 0;
#X connect 54 0 39 0;
#X connect 54 0 50 0;
#X connect 55 0 18 0;
#X connect 57 0 18 0;
#X connect 59 0 18 0;
#X connect 61 0 27 0;
#X connect 63 0 27 0;
#X connect 65 0 27 0;
#X connect 67 0 18 0;
#X connect 69 0 27 0;
#X restore 24 301 pd newplaybackA;
#N canvas 0 22 1342 788 newplaybackE 0;
#X obj -1930 271 s line1;
#X obj -1844 271 s line2;
#X msg -1987 178 0 1000;
#X msg -1796 177 0 1000;
#X msg -2013 230 0.25 1000;
#X msg -1801 229 0.25 1000;
#X text -2018 177 off;
#X text -2038 230 on;
#X text -1748 176 off;
#X text -1738 228 on;
#X obj -1522 -431 tgl 15 0 empty empty empty 17 7 0 10 -262144 -1 -1
0 1;
#X obj -2401 79 s osc3;
#X obj -2281 78 s phasor2;
#X obj -2215 77 s osc1;
#X obj -2164 78 s sine1;
#X obj -2112 78 s osc2;
#X obj -2066 78 s sine2;
#X obj -2015 76 s noise;
#X obj -2271 25 unpack f f f f f f f f;
#X obj -2348 79 s sine4;
#X obj -1821 74 s osc3b;
#X obj -1701 73 s phasor2b;
#X obj -1635 72 s osc1b;
#X obj -1584 73 s sine1b;
#X obj -1527 73 s osc2b;
#X obj -1475 73 s sine2b;
#X obj -1413 74 s noiseb;
#X obj -1665 17 unpack f f f f f f f f;
#X obj -1768 74 s sine4b;
#X obj -2024 -342 + 1;
#X floatatom -1995 -320 5 0 0 0 - - -, f 5;
#X obj -2194 -311 select 1 2 3 4;
#X obj -2024 -364 random 4;
#X floatatom -1908 -321 5 0 0 0 - - -, f 5;
#X obj -1937 -365 random 4;
#X obj -1937 -344 + 5;
#X obj -1530 -360 bng 15 250 50 0 empty empty empty 17 7 0 10 -262144
-1 -1;
#X obj -1441 -353 bng 15 250 50 0 empty empty empty 17 7 0 10 -262144
-1 -1;
#X obj -1936 -296 select 5 6 7 8;
#X msg -1450 -442 0;
#X obj -1475 -417 bng 15 250 50 0 empty empty empty 17 7 0 10 -262144
-1 -1;
#X obj -1334 -393 bng 15 250 50 0 empty empty empty 17 7 0 10 -262144
-1 -1;
#X obj -1514 -384 metro 12000;
#X obj -1425 -377 metro 12000;
#X obj -1428 -413 delay 6000;
#X obj -1451 -463 r kill;
#X obj -1598 157 r kill;
#X text -1448 -284 There are 8 chords to choose from. This subpatch
"randomly" chooses between them. There are two players \, to be able
to cross fade between them;
#X text -1446 -227 The metro bangs a chord into each player every 12
seconds \, so the chords change every 6 seconds.;
#X msg -1285 -435 stop;
#X obj -1831 -457 r G;
#X obj -1801 -457 r D;
#X obj -1774 -457 r A;
#X obj -1522 -453 r E;
#X text -1973 -437 This makes sure the other strings' chords are turned
off;
#X msg -2348 -233 82.4069 164.814 246.942 329.628 415.305 493.883 659.255
987.767;
#X text -2004 -225 E root;
#X msg -2343 -188 73.4162 146.832 220 293.665 369.994 440 587.33 659.255
;
#X text -2012 -187 D9;
#X msg -2345 -156 130.813 195.998 261.626 293.665 329.628 391.995 587.33
659.255;
#X text -2012 -148 C9;
#X msg -1850 -233 97.9989 146.832 195.998 293.665 329.628 391.995 493.883
587.33;
#X msg -2347 -101 138.591 207.652 277.183 369.994 415.305 554.365 659.255
739.989;
#X text -2013 -98 C#m;
#X text -1514 -228 G6;
#X msg -1883 -189 92.4986 184.997 277.183 369.994 440 554.365 659.255
739.989;
#X text -1521 -190 F#m;
#X msg -1897 -155 123.471 184.997 246.942 293.665 369.994 440 587.33
659.255;
#X text -1541 -155 Bm4;
#X msg -1895 -116 87.3071 130.813 174.614 261.626 349.228 440 523.251
659.255;
#X text -1534 -116 Fm7;
#X text -1447 -175 The reason for static \, slow movement \, rather
that snappy rhymic movement \, is to encourage rich tone.;
#X connect 2 0 0 0;
#X connect 3 0 1 0;
#X connect 4 0 0 0;
#X connect 5 0 1 0;
#X connect 10 0 40 0;
#X connect 10 0 42 0;
#X connect 18 0 11 0;
#X connect 18 1 19 0;
#X connect 18 2 12 0;
#X connect 18 3 13 0;
#X connect 18 4 14 0;
#X connect 18 5 15 0;
#X connect 18 6 16 0;
#X connect 18 7 17 0;
#X connect 27 0 20 0;
#X connect 27 1 28 0;
#X connect 27 2 21 0;
#X connect 27 3 22 0;
#X connect 27 4 23 0;
#X connect 27 5 24 0;
#X connect 27 6 25 0;
#X connect 27 7 26 0;
#X connect 29 0 30 0;
#X connect 29 0 4 0;
#X connect 29 0 31 0;
#X connect 29 0 3 0;
#X connect 31 0 55 0;
#X connect 31 1 57 0;
#X connect 31 2 59 0;
#X connect 31 3 62 0;
#X connect 32 0 29 0;
#X connect 34 0 35 0;
#X connect 35 0 33 0;
#X connect 35 0 38 0;
#X connect 35 0 5 0;
#X connect 35 0 2 0;
#X connect 38 0 61 0;
#X connect 38 1 65 0;
#X connect 38 2 67 0;
#X connect 38 3 69 0;
#X connect 39 0 43 0;
#X connect 39 0 10 0;
#X connect 40 0 44 0;
#X connect 42 0 36 0;
#X connect 42 0 32 0;
#X connect 43 0 37 0;
#X connect 43 0 34 0;
#X connect 44 0 41 0;
#X connect 44 0 43 0;
#X connect 45 0 39 0;
#X connect 45 0 49 0;
#X connect 46 0 3 0;
#X connect 46 0 2 0;
#X connect 49 0 44 0;
#X connect 50 0 39 0;
#X connect 50 0 49 0;
#X connect 51 0 39 0;
#X connect 51 0 49 0;
#X connect 52 0 39 0;
#X connect 52 0 49 0;
#X connect 53 0 10 0;
#X connect 55 0 18 0;
#X connect 57 0 18 0;
#X connect 59 0 18 0;
#X connect 61 0 27 0;
#X connect 62 0 18 0;
#X connect 65 0 27 0;
#X connect 67 0 27 0;
#X connect 69 0 27 0;
#X restore 24 324 pd newplaybackE;
#X connect 2 0 21 0;
#X connect 3 0 22 0;
#X connect 4 0 23 0;
#X connect 5 0 24 0;
#X connect 6 0 17 0;
#X connect 7 0 16 0;
#X connect 8 0 18 0;
#X connect 9 0 19 0;
#X connect 10 0 1 0;
#X connect 11 0 1 2;
#X connect 12 0 1 0;
#X connect 13 0 1 2;
#X connect 16 0 10 1;
#X connect 17 0 11 1;
#X connect 18 0 13 1;
#X connect 19 0 12 1;
#X connect 21 0 10 0;
#X connect 22 0 11 0;
#X connect 23 0 12 0;
#X connect 24 0 13 0;
#X connect 26 0 32 0;
#X connect 27 0 33 0;
#X connect 32 0 1 0;
#X connect 33 0 1 2;
